<svg xmlns="http://www.w3.org/2000/svg" width="225" height="225" viewBox="0 0 225 225" version="1.1"><path d="M 67.424 55.233 C 42.716 84.510, 17.816 114.011, 12.092 120.788 C 3.169 131.352, 1.884 133.310, 3.092 134.500 C 6.029 137.395, 111.532 222.985, 112.171 222.992 C 113.408 223.006, 222.500 134.774, 222.500 133.760 C 222.500 132.687, 113.888 2.137, 112.924 2.051 C 112.607 2.023, 92.132 25.955, 67.424 55.233 M 105.384 51.913 C 99.016 54.805, 95.662 59.941, 95.178 67.543 C 94.895 71.984, 95.248 74.791, 96.372 77.045 C 97.250 78.804, 97.750 80.595, 97.484 81.026 C 97.218 81.457, 89.116 89.103, 79.480 98.018 L 61.961 114.227 57.730 113.162 C 46.364 110.301, 35.996 118.287, 36.004 129.898 C 36.013 144.300, 50.318 152.356, 62.621 144.890 L 65.742 142.996 82.871 152.076 C 92.292 157.070, 100 161.362, 100 161.613 C 100 161.865, 99.328 163.096, 98.506 164.350 C 95.713 168.614, 95.500 175.336, 97.996 180.491 C 103.436 191.730, 117.235 194, 126.118 185.118 C 131.760 179.475, 132.685 174.310, 129.874 164.148 C 129.649 163.335, 135.380 158.616, 144.237 152.320 L 158.974 141.845 162.145 144.103 C 164.140 145.524, 167.282 146.525, 170.615 146.801 C 175.018 147.166, 176.671 146.797, 180.392 144.616 C 190.618 138.624, 193.149 128.656, 186.735 119.633 C 182.645 113.879, 171.827 111.278, 165.565 114.543 C 162.012 116.396, 163.843 118.054, 145.137 96.052 C 131.275 79.748, 131.166 79.581, 132.577 76.852 C 133.359 75.338, 134 71.679, 134 68.721 C 134 54.744, 118.805 45.819, 105.384 51.913 M 120.250 88.584 L 117 91.145 117 124.013 L 117 156.881 135.362 145.199 L 153.724 133.517 153.807 127.635 L 153.890 121.752 138.868 103.876 C 130.606 94.044, 123.768 86.005, 123.673 86.011 C 123.578 86.017, 122.037 87.175, 120.250 88.584 M 88 101.598 C 65.941 122.196, 67.578 120.343, 69.033 123.061 C 69.713 124.332, 70.355 127.405, 70.460 129.889 L 70.650 134.405 89.075 145.627 L 107.500 156.848 107.773 124.174 C 108.046 91.559, 107.644 86.886, 104.581 87.062 C 103.986 87.096, 96.525 93.637, 88 101.598" stroke="none" fill="#057bd4" fill-rule="evenodd"/><path d="M -0 112.504 L -0 225.009 112.750 224.754 L 225.500 224.500 225.754 112.250 L 226.009 0 113.004 0 L 0 0 -0 112.504 M 0.483 113 C 0.483 174.875, 0.603 200.188, 0.750 169.250 C 0.897 138.313, 0.897 87.688, 0.750 56.750 C 0.603 25.813, 0.483 51.125, 0.483 113 M 67.424 55.233 C 42.716 84.510, 17.816 114.011, 12.092 120.788 C 3.169 131.352, 1.884 133.310, 3.092 134.500 C 6.029 137.395, 111.532 222.985, 112.171 222.992 C 113.408 223.006, 222.500 134.774, 222.500 133.760 C 222.500 132.687, 113.888 2.137, 112.924 2.051 C 112.607 2.023, 92.132 25.955, 67.424 55.233 M 105.384 51.913 C 99.016 54.805, 95.662 59.941, 95.178 67.543 C 94.895 71.984, 95.248 74.791, 96.372 77.045 C 97.250 78.804, 97.750 80.595, 97.484 81.026 C 97.218 81.457, 89.116 89.103, 79.480 98.018 L 61.961 114.227 57.730 113.162 C 46.364 110.301, 35.996 118.287, 36.004 129.898 C 36.013 144.300, 50.318 152.356, 62.621 144.890 L 65.742 142.996 82.871 152.076 C 92.292 157.070, 100 161.362, 100 161.613 C 100 161.865, 99.328 163.096, 98.506 164.350 C 95.713 168.614, 95.500 175.336, 97.996 180.491 C 103.436 191.730, 117.235 194, 126.118 185.118 C 131.760 179.475, 132.685 174.310, 129.874 164.148 C 129.649 163.335, 135.380 158.616, 144.237 152.320 L 158.974 141.845 162.145 144.103 C 164.140 145.524, 167.282 146.525, 170.615 146.801 C 175.018 147.166, 176.671 146.797, 180.392 144.616 C 190.618 138.624, 193.149 128.656, 186.735 119.633 C 182.645 113.879, 171.827 111.278, 165.565 114.543 C 162.012 116.396, 163.843 118.054, 145.137 96.052 C 131.275 79.748, 131.166 79.581, 132.577 76.852 C 133.359 75.338, 134 71.679, 134 68.721 C 134 54.744, 118.805 45.819, 105.384 51.913 M 120.250 88.584 L 117 91.145 117 124.013 L 117 156.881 135.362 145.199 L 153.724 133.517 153.807 127.635 L 153.890 121.752 138.868 103.876 C 130.606 94.044, 123.768 86.005, 123.673 86.011 C 123.578 86.017, 122.037 87.175, 120.250 88.584 M 88 101.598 C 65.941 122.196, 67.578 120.343, 69.033 123.061 C 69.713 124.332, 70.355 127.405, 70.460 129.889 L 70.650 134.405 89.075 145.627 L 107.500 156.848 107.773 124.174 C 108.046 91.559, 107.644 86.886, 104.581 87.062 C 103.986 87.096, 96.525 93.637, 88 101.598" stroke="none" fill="#fafbfb" fill-rule="evenodd"/></svg>