<svg xmlns="http://www.w3.org/2000/svg" width="512" height="512" viewBox="0 0 512 512" version="1.1"><path d="M 121.015 317.006 C 113.357 345.843, 113.186 346.253, 108.839 346.247 C 106.967 346.244, 91.621 342.355, 81.629 339.351 C 80.145 338.905, 80.825 340.825, 84.920 348.644 C 90.434 359.172, 99.066 371.786, 108 382.369 L 113.500 388.885 155.500 388.923 L 197.500 388.962 188.156 384.002 C 165.268 371.852, 148.056 356.008, 133.574 333.757 C 130.444 328.948, 126.606 322.201, 125.046 318.763 L 122.208 312.513 121.015 317.006 M 393.698 407.574 C 377.322 423.241, 348.417 441.214, 328.500 448.114 C 325.002 449.326, 332.848 449.532, 390.988 449.757 L 457.476 450.014 469.978 437.513 L 482.479 425.011 470.505 413.005 L 458.531 401 429.516 401.033 L 400.500 401.067 393.698 407.574" stroke="none" fill="#f53f96" fill-rule="evenodd"/><path d="M 180.728 160.722 C 182.503 160.943, 185.653 160.946, 187.728 160.730 C 189.802 160.513, 188.350 160.333, 184.500 160.328 C 180.650 160.324, 178.952 160.501, 180.728 160.722 M 322.750 160.723 C 324.538 160.945, 327.462 160.945, 329.250 160.723 C 331.038 160.502, 329.575 160.320, 326 160.320 C 322.425 160.320, 320.962 160.502, 322.750 160.723 M 313 347.500 C 314.866 349.425, 316.617 351, 316.892 351 C 317.167 351, 315.866 349.425, 314 347.500 C 312.134 345.575, 310.383 344, 310.108 344 C 309.833 344, 311.134 345.575, 313 347.500 M 376.473 353.334 L 357.445 358.500 350.268 364.689 C 339.988 373.553, 329.340 380.477, 316.602 386.579 C 297.484 395.739, 281.218 399.397, 254.204 400.613 L 238.908 401.301 249.954 412.497 C 256.029 418.655, 261 424.506, 261 425.500 C 261 426.494, 255.962 432.413, 249.805 438.654 L 238.611 450 253.754 450 C 293.344 450, 329.912 439.274, 361.709 418.334 C 375.696 409.123, 391.906 394.875, 402.093 382.838 L 406.039 378.176 403.109 367.338 C 401.497 361.377, 399.671 354.587, 399.051 352.250 C 398.430 349.913, 397.378 348.038, 396.711 348.084 C 396.045 348.129, 386.938 350.492, 376.473 353.334 M 36 400.768 C 36 401.190, 40.837 406.253, 46.750 412.018 L 57.500 422.500 47.023 411.755 L 36.546 401.010 129.523 400.750 L 222.500 400.490 129.250 400.245 C 77.963 400.110, 36 400.346, 36 400.768 M 234.500 413 C 241.083 419.600, 246.694 425, 246.969 425 C 247.244 425, 242.083 419.600, 235.500 413 C 228.917 406.400, 223.306 401, 223.031 401 C 222.756 401, 227.917 406.400, 234.500 413" stroke="none" fill="#6b3fd2" fill-rule="evenodd"/><path d="M 241.500 51.124 C 199.515 53.461, 158.993 69.339, 124.916 96.806 C 115.249 104.598, 97.983 122.465, 90.715 132.197 C 69.983 159.960, 56.660 191.847, 51.313 226.500 C 49.221 240.058, 49.008 269.464, 50.903 283 C 55.831 318.192, 69.998 352.457, 90.960 379.878 L 97.933 389 58.622 389 C 21.807 389, 19.205 389.116, 17.655 390.829 C 14.127 394.727, 15.393 396.866, 29.720 411.221 L 43.440 424.967 29.649 438.885 C 16.872 451.780, 15.882 453.047, 16.179 456.129 C 16.407 458.486, 17.228 459.822, 19 460.716 C 20.994 461.723, 66.063 461.930, 241.739 461.739 L 461.978 461.500 478.989 444.511 C 493.458 430.061, 496.001 427.072, 496.006 424.511 C 496.011 421.934, 493.621 419.157, 479.428 405.250 L 462.844 389 437.294 389 L 411.744 389 414.375 385.750 C 426.352 370.954, 442.178 342.800, 448.406 325.206 C 451.654 316.034, 455.468 301.181, 457.575 289.500 C 459.725 277.580, 460.578 247.079, 459.115 234.403 C 450.981 163.912, 410.245 104.770, 348 73.081 C 314.456 56.004, 280.307 48.964, 241.500 51.124 M 230.536 63.146 C 190.776 68.241, 151.644 86.795, 122.163 114.529 C 117.726 118.702, 111.793 124.776, 108.978 128.025 L 103.860 133.934 108.022 149.217 C 110.311 157.623, 112.323 164.643, 112.494 164.818 C 112.950 165.288, 151.159 154.970, 153.500 153.745 C 154.600 153.170, 158.069 150.333, 161.209 147.440 C 173.737 135.900, 196.074 123.544, 213.500 118.514 C 229.285 113.958, 239.214 112.607, 256.750 112.627 C 265.688 112.637, 273 112.452, 273 112.216 C 273 111.980, 267.825 106.602, 261.500 100.266 C 254.410 93.162, 250 87.968, 250 86.719 C 250 85.481, 254.353 80.281, 261.195 73.346 L 272.389 62 254.945 62.126 C 245.350 62.196, 234.366 62.655, 230.536 63.146 M 274.014 75.466 L 262.529 87.004 277.497 101.997 C 292.413 116.938, 292.494 117, 300.483 119.648 C 332.430 130.238, 359.172 151.351, 377.390 180.370 C 380.267 184.953, 383.719 191.237, 385.061 194.334 C 386.402 197.432, 387.820 199.974, 388.211 199.983 C 388.603 199.992, 389.430 198.088, 390.051 195.750 C 396.254 172.373, 397.224 169.361, 399.045 167.828 C 400.917 166.250, 401.865 166.375, 415.732 170.028 C 423.817 172.158, 430.606 173.728, 430.817 173.517 C 431.028 173.305, 428.887 168.715, 426.059 163.316 C 405.788 124.614, 368.783 91.931, 326.069 75.005 C 316.198 71.094, 298.274 65.979, 289.500 64.571 L 285.500 63.929 274.014 75.466 M 231.834 124.567 C 213.864 127.818, 193.032 136.529, 178 147.076 C 167.673 154.322, 151.577 170.784, 144.831 181 C 133.604 198, 126.380 216.209, 123.401 235.015 C 120.992 250.227, 121.886 273.818, 125.402 287.797 C 131.823 313.327, 143.791 333.849, 163.169 352.558 C 181.638 370.390, 201.678 380.965, 228.557 387.063 C 242.610 390.252, 266.991 390.291, 281.734 387.150 C 354.809 371.577, 400.828 301.761, 385.994 228.972 C 375.081 175.419, 332.019 133.921, 277.619 124.533 C 266.601 122.631, 242.431 122.649, 231.834 124.567 M 237.652 138.926 L 232 144.852 232 153.355 L 232 161.858 226.250 163.512 C 223.088 164.422, 216.928 166.945, 212.563 169.119 L 204.626 173.071 198.536 167.036 L 192.446 161 184.451 161 L 176.456 161 168.228 169.271 L 160 177.542 160 185.494 L 160 193.446 166.056 199.557 L 172.112 205.667 168.613 212.639 C 166.688 216.474, 164.125 222.623, 162.916 226.305 L 160.719 233 152.285 233 L 143.852 233 137.926 238.652 L 132 244.304 132 255.873 L 132 267.442 137.719 273.221 L 143.437 279 152.022 279 L 160.606 279 162.856 285.984 C 164.093 289.825, 166.631 296, 168.497 299.707 L 171.889 306.446 165.944 312.637 L 160 318.827 160 327.046 L 160 335.266 167.885 343.311 L 175.769 351.356 181.848 351.795 C 190.411 352.415, 192.481 351.636, 199.123 345.301 L 204.990 339.705 213.756 343.778 C 218.577 346.018, 224.654 348.388, 227.261 349.044 L 232 350.237 232 358.900 L 232 367.563 237.779 373.281 L 243.558 379 255.563 379 L 267.568 379 272.745 373.750 L 277.923 368.500 278.211 359.641 L 278.500 350.782 287.795 347.466 C 292.907 345.642, 298.982 343.021, 301.295 341.640 L 305.500 339.131 311.779 345.315 L 318.058 351.500 326.072 351.500 L 334.085 351.500 342.543 342.889 L 351 334.278 351 327.053 L 351 319.827 345 313.579 C 341.700 310.142, 339 306.974, 339 306.538 C 339 306.102, 340.362 302.978, 342.028 299.595 C 343.693 296.213, 346.111 290.308, 347.401 286.473 L 349.747 279.500 358.692 279.215 L 367.638 278.930 373.069 273.433 L 378.500 267.936 378.838 256.973 L 379.177 246.011 372.930 239.505 L 366.683 233 358.049 233 L 349.415 233 348.170 228.250 C 347.486 225.637, 345.060 219.547, 342.781 214.716 L 338.636 205.932 343.703 200.716 C 350.326 193.899, 351 192.397, 351 184.444 L 351 177.756 342.823 169.378 L 334.645 161 326.236 161 L 317.827 161 311.663 166.901 L 305.500 172.801 299 169.527 C 295.425 167.726, 289.238 165.207, 285.250 163.929 L 278 161.606 278 153.082 L 278 144.558 272.281 138.779 L 266.563 133 254.934 133 L 243.304 133 237.652 138.926 M 245.235 146.257 C 242.174 149.416, 242.070 149.818, 241.789 159.507 L 241.500 169.500 235.500 171.313 C 225.233 174.415, 218.748 177.102, 211.825 181.123 C 208.154 183.255, 204.619 185, 203.969 185 C 203.319 185, 199.538 181.850, 195.568 178 C 189.099 171.728, 187.937 171, 184.390 171 C 180.937 171, 179.766 171.674, 175.216 176.281 C 170.680 180.875, 170 182.083, 170 185.558 C 170 189.177, 170.660 190.209, 177 196.500 C 180.850 200.320, 184 204.075, 184 204.842 C 184 205.610, 182.468 208.772, 180.596 211.869 C 176.472 218.691, 172.729 227.752, 171.012 235.072 C 170.311 238.057, 169.292 241.063, 168.747 241.750 C 168.076 242.596, 164.623 243, 158.074 243 C 148.435 243, 148.378 243.015, 145.196 246.298 C 142.218 249.370, 142 250.075, 142 256.611 C 142 262.991, 142.254 263.869, 144.805 266.313 C 147.451 268.849, 148.152 269, 157.233 269 C 164.313 269, 167.241 269.384, 168.309 270.452 C 169.108 271.250, 170.554 275.138, 171.522 279.091 C 172.491 283.045, 175.695 291.024, 178.642 296.824 C 181.589 302.624, 184 307.784, 184 308.291 C 184 308.798, 180.850 312.462, 177 316.432 C 167.836 325.883, 167.628 328.226, 175.281 335.784 C 179.876 340.321, 181.083 341, 184.560 341 C 188.153 341, 189.210 340.342, 195 334.500 C 198.543 330.925, 202.314 328, 203.379 328 C 204.444 328, 210.307 330.442, 216.408 333.426 C 222.508 336.410, 230.392 339.550, 233.927 340.404 C 237.462 341.257, 240.718 342.528, 241.162 343.228 C 241.606 343.928, 241.976 348.803, 241.985 354.063 C 241.999 363.226, 242.117 363.738, 244.805 366.313 C 247.331 368.734, 248.342 369, 255 369 C 261.658 369, 262.669 368.734, 265.195 366.313 C 267.890 363.731, 268 363.247, 268 353.935 C 268 346.870, 268.378 343.932, 269.394 343.088 C 270.160 342.452, 274.020 341.036, 277.970 339.941 C 285.990 337.719, 296.545 333.172, 300.925 330.053 C 305.697 326.656, 307.922 327.359, 315 334.500 C 321.056 340.611, 321.716 341, 326.009 341 C 330.138 341, 331.027 340.542, 335.288 336.216 C 339.495 331.944, 340 330.950, 340 326.937 C 340 322.732, 339.580 322.026, 333.500 316 C 329.499 312.034, 327 308.728, 327 307.400 C 327 306.213, 328.575 302.627, 330.499 299.431 C 334.292 293.133, 337.343 285.621, 339.550 277.146 C 341.640 269.124, 341.844 269, 352.935 269 C 362.247 269, 362.731 268.890, 365.313 266.195 C 367.741 263.660, 368 262.668, 368 255.882 C 368 248.961, 367.781 248.164, 365.195 245.687 C 362.551 243.153, 361.844 243, 352.818 243 C 345.853 243, 342.930 242.620, 342.088 241.606 C 341.452 240.840, 340.074 237.127, 339.027 233.356 C 336.828 225.442, 333.117 216.730, 329.513 211.020 C 325.707 204.992, 326.164 203.271, 333.500 196 C 339.376 190.176, 340 189.168, 340 185.495 C 340 181.915, 339.371 180.811, 334.719 176.216 C 327.085 168.677, 324.832 168.886, 315.432 178 C 311.462 181.850, 307.774 185, 307.238 185 C 306.702 185, 301.592 182.595, 295.882 179.656 C 290.172 176.716, 282.350 173.493, 278.500 172.493 C 268.239 169.828, 268 169.499, 268 158.032 C 268 148.756, 267.889 148.268, 265.195 145.687 C 262.698 143.294, 261.625 143, 255.391 143 C 248.805 143, 248.206 143.192, 245.235 146.257 M 90.312 153.271 C 64.113 195.288, 54.881 246.171, 64.598 295 C 67.079 307.464, 73.130 325.911, 74.908 326.431 C 88.626 330.443, 104.303 334.075, 104.915 333.382 C 105.343 332.897, 108.056 323.645, 110.943 312.822 L 116.193 293.143 114.637 286.302 C 106.400 250.085, 114.376 207.947, 135.406 176.586 C 137.948 172.796, 139.803 169.470, 139.529 169.195 C 139.254 168.921, 132.257 170.518, 123.979 172.745 C 115.702 174.972, 108.082 176.573, 107.046 176.302 C 104.743 175.700, 103.959 173.745, 99.905 158.500 C 98.149 151.900, 96.428 146.172, 96.078 145.771 C 95.729 145.371, 93.134 148.746, 90.312 153.271 M 399.857 198.549 L 394.408 219.098 396.340 227.799 C 399.293 241.099, 399.222 270.806, 396.203 284.688 C 392.147 303.340, 384.505 321.635, 374.602 336.403 C 372.056 340.200, 370.108 343.442, 370.274 343.607 C 370.440 343.773, 377.084 342.137, 385.038 339.971 C 401.267 335.553, 404.506 335.208, 405.865 337.750 C 406.379 338.712, 408.400 345.518, 410.356 352.872 C 412.311 360.227, 414.116 366.450, 414.366 366.700 C 415.143 367.476, 422.813 355.497, 427.989 345.423 C 451.741 299.194, 456.220 245.762, 440.436 196.940 L 436.996 186.296 421.695 182.148 C 413.279 179.867, 406.149 178, 405.849 178 C 405.550 178, 402.854 187.247, 399.857 198.549 M 246.978 193.949 C 221.691 197.331, 201.117 215.605, 194.497 240.563 C 192.620 247.639, 192.382 263.550, 194.049 270.548 C 196.166 279.440, 202.444 291.104, 208.911 298.161 C 216.651 306.608, 224.178 311.591, 234.956 315.401 C 242.547 318.084, 244.783 318.423, 255 318.438 C 264.085 318.452, 267.970 317.995, 273.500 316.260 C 308.640 305.237, 326.852 267.071, 313.378 232.689 C 306.505 215.151, 289.556 200.196, 271.413 195.661 C 263.646 193.720, 253.833 193.033, 246.978 193.949 M 242.275 205.539 C 223.902 210.487, 209.299 225.237, 204.489 243.703 C 197.678 269.852, 213.897 298.140, 240.298 306.159 C 249.717 309.020, 265.816 308.463, 274 304.993 C 289.782 298.303, 301.747 284.794, 306.052 268.806 C 307.693 262.714, 307.404 248.907, 305.498 242.304 C 300.195 223.934, 284.289 208.877, 266.201 205.105 C 259.107 203.626, 248.676 203.815, 242.275 205.539 M 121.753 312.661 C 121.491 313.123, 119.569 320.025, 117.482 328 C 113.867 341.810, 112.041 345.980, 109.595 346.016 C 108.993 346.025, 102.314 344.373, 94.754 342.346 C 87.193 340.318, 80.710 338.957, 80.346 339.321 C 79.982 339.684, 81.393 343.248, 83.481 347.241 C 90.324 360.329, 101.756 376.616, 110.862 386.250 L 114.406 390 156.703 390 C 179.966 390, 198.992 389.663, 198.983 389.250 C 198.974 388.837, 196.432 387.402, 193.334 386.061 C 181.116 380.769, 162.322 367.295, 151.882 356.344 C 141.185 345.123, 133.409 334.073, 126.418 320.161 C 124.113 315.575, 122.014 312.200, 121.753 312.661 M 385 350.697 C 378.125 352.554, 369.028 355.002, 364.785 356.137 C 358.151 357.911, 356.149 359.013, 350.503 363.997 C 332.162 380.189, 309.248 391.719, 284.725 397.097 C 278.185 398.531, 270.015 399.290, 256.658 399.703 L 237.817 400.285 248.908 411.408 C 257.902 420.428, 260 423.077, 260 425.419 C 260 427.755, 257.861 430.475, 248.805 439.654 L 237.611 451 246.555 450.998 C 260.429 450.994, 280.985 449.176, 292.680 446.919 C 332.119 439.308, 373.353 416.005, 399.160 386.744 C 402.922 382.478, 406 378.486, 406 377.873 C 406 376.279, 398.919 349.716, 398.145 348.410 C 397.705 347.666, 393.530 348.392, 385 350.697 M 46.392 411.933 C 56.501 422.168, 58.080 424.195, 57.489 426.183 C 57.110 427.457, 51.790 433.563, 45.666 439.750 L 34.533 451 128.531 451 L 222.529 451 235.265 438.236 L 248.001 425.472 235.236 412.736 L 222.472 400 128.539 400 L 34.606 400 46.392 411.933 M 393 407.627 C 372.856 425.565, 350.233 439.551, 328.500 447.501 C 325.750 448.507, 323.072 449.706, 322.550 450.165 C 322.028 450.624, 352.184 451, 389.564 451 L 457.529 451 470.500 438 L 483.471 425.001 471 412.500 L 458.530 400 430.015 400.029 L 401.500 400.058 393 407.627" stroke="none" fill="#000000" fill-rule="evenodd"/><path d="M 240.462 124.112 C 182.778 130.182, 134.764 175.234, 124.372 233.039 C 121.891 246.841, 122.114 268.548, 124.873 281.688 C 130.771 309.774, 142.910 331.972, 162.923 351.266 C 190.044 377.414, 223.363 390.168, 260.500 388.618 C 295.116 387.173, 324.865 374.210, 349.038 350.038 C 367.714 331.361, 380.037 308.472, 385.667 282 C 387.933 271.343, 388.198 243.071, 386.131 232.500 C 374.588 173.480, 328.150 130.566, 268.789 124.064 C 257.901 122.871, 252.159 122.881, 240.462 124.112 M 237.680 137.916 L 231.558 143.833 231.029 152.578 L 230.500 161.323 224 163.516 C 220.425 164.722, 214.625 167.162, 211.112 168.939 L 204.724 172.168 198.585 166.084 L 192.446 160 184.493 160 L 176.540 160 167.770 168.729 L 159 177.458 159 185.316 L 159 193.173 165.029 199.452 L 171.058 205.731 167.118 213.878 C 164.951 218.359, 162.603 224.270, 161.900 227.013 L 160.622 232 152.144 232 L 143.667 232 137.333 238.333 L 131 244.667 131 255.920 L 131 267.173 137.123 273.549 L 143.246 279.926 151.783 280.213 L 160.320 280.500 162.591 287.241 C 163.840 290.949, 166.264 296.739, 167.976 300.109 L 171.090 306.237 165.045 312.532 L 159 318.827 159 327.099 L 159 335.371 167.314 343.686 L 175.629 352 184.401 352 L 193.173 352 199.337 346.163 L 205.500 340.325 209.500 342.649 C 211.700 343.927, 217.438 346.390, 222.250 348.123 L 231 351.274 231 359.223 L 231 367.173 237.159 373.587 L 243.317 380 255.319 380 L 267.320 380 273.160 374.160 L 279 368.320 279 359.731 L 279 351.142 284.250 349.607 C 287.137 348.762, 293.157 346.299, 297.626 344.132 L 305.752 340.192 311.595 346.096 L 317.437 352 325.991 352 L 334.544 352 342.772 343.729 L 351 335.458 351 326.948 L 351 318.437 345.096 312.595 L 339.192 306.752 343.132 298.626 C 345.299 294.157, 347.762 288.137, 348.607 285.250 L 350.142 280 358.731 280 L 367.320 280 373.160 274.160 L 379 268.320 379 256.319 L 379 244.317 372.587 238.159 L 366.173 232 358.202 232 L 350.230 232 348.552 226.750 C 347.628 223.863, 345.257 218.014, 343.281 213.754 L 339.688 206.008 345.344 200.078 L 351 194.148 351 185.252 L 351 176.355 342.622 168.177 L 334.244 160 326.036 160 L 317.827 160 311.570 166.008 L 305.313 172.017 299.406 168.986 C 296.158 167.318, 290.350 164.861, 286.500 163.525 L 279.500 161.095 279.211 152.798 L 278.923 144.500 272.740 138.250 L 266.558 132 255.179 132 L 243.801 132 237.680 137.916" stroke="none" fill="#e9e5dc" fill-rule="evenodd"/><path d="M 273.994 75.506 L 262.520 87.012 278.006 102.256 L 293.492 117.500 278.496 102.227 L 263.500 86.954 275.084 75.477 C 281.456 69.165, 286.398 64, 286.068 64 C 285.738 64, 280.304 69.178, 273.994 75.506 M 250.287 132.740 C 253.469 132.939, 258.419 132.937, 261.287 132.736 C 264.154 132.535, 261.550 132.372, 255.500 132.374 C 249.450 132.376, 247.104 132.541, 250.287 132.740 M 237 138.500 C 234.571 140.975, 232.809 143, 233.084 143 C 233.359 143, 235.571 140.975, 238 138.500 C 240.429 136.025, 242.191 134, 241.916 134 C 241.641 134, 239.429 136.025, 237 138.500 M 245.174 146.314 C 243.253 148.359, 243 149.748, 243 158.242 C 243 167.436, 242.885 167.945, 240.365 169.927 C 238.916 171.067, 236.904 172, 235.894 172 C 232.735 172, 217.861 177.849, 211.725 181.505 C 208.497 183.427, 204.863 185, 203.649 185 C 202.260 185, 199.055 182.591, 195 178.500 C 189.174 172.622, 188.169 172, 184.491 172 C 180.959 172, 179.805 172.629, 175.712 176.784 C 171.681 180.877, 171 182.146, 171 185.563 C 171 189.152, 171.660 190.212, 177.500 196 C 181.639 200.103, 184 203.254, 184 204.677 C 184 205.906, 182.641 209.217, 180.980 212.035 C 177.057 218.688, 173.571 227.037, 171.665 234.343 C 169.298 243.420, 168.418 244, 157.019 244 C 148.204 244, 147.156 244.205, 145.174 246.314 C 143.341 248.266, 143 249.805, 143 256.127 C 143 263.038, 143.220 263.837, 145.805 266.313 C 148.449 268.847, 149.156 269, 158.182 269 C 169.143 269, 169.363 269.135, 171.450 277.146 C 173.657 285.621, 176.708 293.133, 180.501 299.431 C 182.425 302.627, 184 306.213, 184 307.400 C 184 308.728, 181.501 312.034, 177.500 316 C 171.389 322.056, 171 322.716, 171 327.009 C 171 331.138, 171.458 332.027, 175.784 336.288 C 182.868 343.265, 185.321 342.966, 194.568 334 C 198.538 330.150, 202.499 327, 203.369 327 C 204.239 327, 209.124 329.225, 214.225 331.944 C 219.326 334.664, 227.286 337.978, 231.914 339.309 C 236.665 340.675, 240.910 342.524, 241.664 343.555 C 242.547 344.763, 243 348.473, 243 354.504 C 243 363.193, 243.133 363.753, 245.805 366.313 C 248.304 368.708, 249.374 369, 255.630 369 C 261.880 369, 262.918 368.717, 265.076 366.424 C 267.244 364.121, 267.553 362.724, 268 353.212 L 268.500 342.576 272 341.373 C 273.925 340.711, 278.757 339.177, 282.737 337.964 C 286.717 336.750, 293.431 333.787, 297.658 331.379 C 301.884 328.970, 305.988 327, 306.777 327 C 307.567 327, 311.462 330.150, 315.432 334 C 324.883 343.164, 327.226 343.372, 334.784 335.719 C 342.323 328.085, 342.114 325.832, 333 316.432 C 329.150 312.462, 326 308.567, 326 307.777 C 326 306.988, 327.970 302.884, 330.379 298.658 C 332.787 294.431, 335.750 287.717, 336.964 283.737 C 338.177 279.757, 339.711 274.925, 340.373 273 L 341.576 269.500 352.212 269 C 361.724 268.553, 363.121 268.244, 365.424 266.076 C 367.725 263.910, 368 262.889, 368 256.513 C 368 249.997, 367.755 249.140, 365.195 246.687 C 362.577 244.179, 361.793 244, 353.418 244 C 344.066 244, 340 242.588, 340 239.341 C 340 235.851, 333.630 219.048, 329.949 212.825 C 327.777 209.154, 326 205.443, 326 204.578 C 326 203.713, 329.150 199.690, 333 195.637 C 341.999 186.163, 342.290 183.680, 335.216 176.712 C 330.944 172.505, 329.950 172, 325.937 172 C 321.732 172, 321.026 172.420, 315 178.500 C 311.457 182.075, 307.911 185, 307.121 185 C 306.331 185, 300.693 182.544, 294.592 179.541 C 288.492 176.539, 280.575 173.349, 277 172.452 C 273.425 171.555, 269.938 170.356, 269.250 169.788 C 268.407 169.092, 268 165.599, 268 159.065 C 268 149.753, 267.890 149.269, 265.195 146.687 C 262.660 144.258, 261.669 144, 254.870 144 C 248.301 144, 247.073 144.293, 245.174 146.314 M 356.500 154 C 359.766 157.300, 362.662 160, 362.937 160 C 363.212 160, 360.766 157.300, 357.500 154 C 354.234 150.700, 351.338 148, 351.063 148 C 350.788 148, 353.234 150.700, 356.500 154 M 342.500 169 C 346.320 172.850, 349.671 176, 349.946 176 C 350.221 176, 347.320 172.850, 343.500 169 C 339.680 165.150, 336.329 162, 336.054 162 C 335.779 162, 338.680 165.150, 342.500 169 M 159.328 185.500 C 159.333 189.350, 159.513 190.802, 159.730 188.728 C 159.946 186.653, 159.943 183.503, 159.722 181.728 C 159.501 179.952, 159.324 181.650, 159.328 185.500 M 241 194.560 C 218.224 199.469, 198.377 219.569, 193.479 242.685 C 186.837 274.029, 204.731 305.649, 235 316.060 C 243.916 319.126, 260.967 319.880, 270.019 317.607 C 292.570 311.945, 310.707 293.963, 316.524 271.500 C 318.526 263.768, 318.529 248.252, 316.530 240.500 C 310.835 218.418, 292.911 200.732, 270.391 194.972 C 261.406 192.674, 250.461 192.521, 241 194.560 M 137 238.500 C 134.571 240.975, 132.809 243, 133.084 243 C 133.359 243, 135.571 240.975, 138 238.500 C 140.429 236.025, 142.191 234, 141.916 234 C 141.641 234, 139.429 236.025, 137 238.500 M 399.370 256 C 399.370 261.775, 399.535 264.137, 399.737 261.250 C 399.939 258.363, 399.939 253.637, 399.737 250.750 C 399.535 247.863, 399.370 250.225, 399.370 256 M 131.365 256.500 C 131.368 262, 131.536 264.122, 131.738 261.216 C 131.941 258.311, 131.939 253.811, 131.734 251.216 C 131.528 248.622, 131.363 251, 131.365 256.500 M 388.232 256 C 388.232 257.925, 388.438 258.712, 388.689 257.750 C 388.941 256.788, 388.941 255.213, 388.689 254.250 C 388.438 253.287, 388.232 254.075, 388.232 256 M 159.336 327 C 159.336 331.125, 159.513 332.813, 159.728 330.750 C 159.944 328.688, 159.944 325.313, 159.728 323.250 C 159.513 321.188, 159.336 322.875, 159.336 327" stroke="none" fill="#24809d" fill-rule="evenodd"/><path d="M 239.500 62.684 C 201.730 65.963, 165.283 80.288, 135.318 103.629 C 126.323 110.635, 108.096 128.584, 106.002 132.497 C 104.833 134.681, 105.134 136.692, 108.548 149.487 C 111.272 159.695, 112.849 164, 113.866 164 C 114.662 164, 123.881 161.707, 134.353 158.905 L 153.394 153.811 159.447 148.316 C 172.556 136.415, 191.654 125.388, 209.349 119.502 C 226.844 113.682, 234.395 112.518, 254.734 112.509 L 272.969 112.500 261.484 100.985 C 252.965 92.443, 250 88.824, 250 86.967 C 250 85.119, 252.754 81.721, 260.522 73.982 C 270.116 64.424, 270.843 63.443, 268.772 62.850 C 266.431 62.180, 246.599 62.067, 239.500 62.684" stroke="none" fill="#f7921e" fill-rule="evenodd"/><path d="M 90.271 154.271 C 62.868 197.865, 54.272 254.801, 67.515 305 C 70.357 315.772, 73.937 325.996, 74.872 326.009 C 75.217 326.013, 82.082 327.761, 90.126 329.892 L 104.751 333.767 109.999 314.003 C 113.464 300.954, 115.076 293.095, 114.744 290.870 C 114.468 289.017, 113.469 282.775, 112.524 277 C 110.459 264.375, 110.956 239.863, 113.518 228 C 117.453 209.778, 125.956 189.494, 135.509 175.541 C 138.078 171.787, 139.536 168.964, 138.748 169.267 C 135.281 170.597, 110.050 177, 108.275 177 C 104.957 177, 103.399 173.988, 100 161 C 98.200 154.125, 96.439 147.947, 96.086 147.271 C 95.701 146.534, 93.372 149.338, 90.271 154.271" stroke="none" fill="#a5d042" fill-rule="evenodd"/><path d="M 121.015 317.006 C 113.357 345.843, 113.186 346.253, 108.839 346.247 C 106.967 346.244, 91.621 342.355, 81.629 339.351 C 80.145 338.905, 80.825 340.825, 84.920 348.644 C 90.434 359.172, 99.066 371.786, 108 382.369 L 113.500 388.885 155.500 388.923 L 197.500 388.962 188.156 384.002 C 165.268 371.852, 148.056 356.008, 133.574 333.757 C 130.444 328.948, 126.606 322.201, 125.046 318.763 L 122.208 312.513 121.015 317.006 M 393.698 407.574 C 377.322 423.241, 348.417 441.214, 328.500 448.114 C 325.002 449.326, 332.848 449.532, 390.988 449.757 L 457.476 450.014 469.978 437.513 L 482.479 425.011 470.505 413.005 L 458.531 401 429.516 401.033 L 400.500 401.067 393.698 407.574" stroke="none" fill="#f53f96" fill-rule="evenodd"/><path d="M 152.500 358 C 155.209 360.750, 157.650 363, 157.925 363 C 158.200 363, 156.209 360.750, 153.500 358 C 150.791 355.250, 148.350 353, 148.075 353 C 147.800 353, 149.791 355.250, 152.500 358 M 415.311 400.748 C 423.457 400.916, 436.507 400.916, 444.311 400.747 C 452.115 400.579, 445.450 400.441, 429.500 400.441 C 413.550 400.442, 407.165 400.580, 415.311 400.748 M 47.308 411.851 C 54.873 419.527, 58 423.398, 58 425.085 C 58 426.787, 54.786 430.692, 46.766 438.734 L 35.533 450 129.031 450 L 222.530 450 234.765 437.735 L 247.001 425.471 234.736 413.235 L 222.471 401 129.543 401 L 36.615 401 47.308 411.851 M 470.490 412.750 L 482.469 425.001 469.990 437.750 L 457.510 450.500 470.500 437.750 L 483.490 425 471 412.750 L 458.511 400.500 470.490 412.750" stroke="none" fill="#a73dd3" fill-rule="evenodd"/><path d="M 180.728 160.722 C 182.503 160.943, 185.653 160.946, 187.728 160.730 C 189.802 160.513, 188.350 160.333, 184.500 160.328 C 180.650 160.324, 178.952 160.501, 180.728 160.722 M 322.750 160.723 C 324.538 160.945, 327.462 160.945, 329.250 160.723 C 331.038 160.502, 329.575 160.320, 326 160.320 C 322.425 160.320, 320.962 160.502, 322.750 160.723 M 313 347.500 C 314.866 349.425, 316.617 351, 316.892 351 C 317.167 351, 315.866 349.425, 314 347.500 C 312.134 345.575, 310.383 344, 310.108 344 C 309.833 344, 311.134 345.575, 313 347.500 M 376.473 353.334 L 357.445 358.500 350.268 364.689 C 339.988 373.553, 329.340 380.477, 316.602 386.579 C 297.484 395.739, 281.218 399.397, 254.204 400.613 L 238.908 401.301 249.954 412.497 C 256.029 418.655, 261 424.506, 261 425.500 C 261 426.494, 255.962 432.413, 249.805 438.654 L 238.611 450 253.754 450 C 293.344 450, 329.912 439.274, 361.709 418.334 C 375.696 409.123, 391.906 394.875, 402.093 382.838 L 406.039 378.176 403.109 367.338 C 401.497 361.377, 399.671 354.587, 399.051 352.250 C 398.430 349.913, 397.378 348.038, 396.711 348.084 C 396.045 348.129, 386.938 350.492, 376.473 353.334 M 36 400.768 C 36 401.190, 40.837 406.253, 46.750 412.018 L 57.500 422.500 47.023 411.755 L 36.546 401.010 129.523 400.750 L 222.500 400.490 129.250 400.245 C 77.963 400.110, 36 400.346, 36 400.768 M 234.500 413 C 241.083 419.600, 246.694 425, 246.969 425 C 247.244 425, 242.083 419.600, 235.500 413 C 228.917 406.400, 223.306 401, 223.031 401 C 222.756 401, 227.917 406.400, 234.500 413" stroke="none" fill="#6b3fd2" fill-rule="evenodd"/><path d="M 405.503 180.250 C 405.265 180.938, 402.838 189.927, 400.110 200.226 L 395.150 218.952 397.247 228.726 C 400.308 242.987, 400.241 269.285, 397.107 284 C 392.958 303.479, 386.575 319.175, 376.543 334.566 C 372.664 340.516, 371.491 342.994, 372.723 342.638 C 382.763 339.734, 401.006 335, 402.157 335 C 405.564 335, 407.076 337.960, 410.844 352 L 414.735 366.499 418.916 360 C 425.662 349.511, 434.652 330.415, 438.923 317.500 C 449.916 284.263, 451.869 251.276, 444.897 216.620 C 443.176 208.068, 437.480 188.257, 436.410 187.105 C 436.003 186.667, 407.960 179.019, 406.719 179.007 C 406.289 179.003, 405.742 179.563, 405.503 180.250" stroke="none" fill="#3ea9ef" fill-rule="evenodd"/><path d="M 274.498 76.002 L 263.530 87.005 278.277 101.776 C 292.729 116.253, 293.169 116.593, 300.262 118.807 C 324.701 126.432, 350.716 144.412, 367.563 165.321 C 374.236 173.603, 383.381 188.183, 386.492 195.500 L 388.193 199.500 392.346 184.373 C 394.631 176.054, 397.118 168.516, 397.872 167.623 C 399.795 165.350, 401.767 165.545, 416.456 169.465 C 423.581 171.366, 429.597 172.737, 429.823 172.510 C 430.533 171.801, 422.011 156.936, 414.912 146.500 C 387.954 106.871, 344.350 77.357, 297.500 67.028 C 292.550 65.936, 287.817 65.034, 286.983 65.022 C 286.149 65.010, 280.530 69.951, 274.498 76.002" stroke="none" fill="#1cd9ed" fill-rule="evenodd"/><path d="M 273.994 75.506 L 262.520 87.012 278.006 102.256 L 293.492 117.500 278.496 102.227 L 263.500 86.954 275.084 75.477 C 281.456 69.165, 286.398 64, 286.068 64 C 285.738 64, 280.304 69.178, 273.994 75.506 M 250.287 132.740 C 253.469 132.939, 258.419 132.937, 261.287 132.736 C 264.154 132.535, 261.550 132.372, 255.500 132.374 C 249.450 132.376, 247.104 132.541, 250.287 132.740 M 237 138.500 C 234.571 140.975, 232.809 143, 233.084 143 C 233.359 143, 235.571 140.975, 238 138.500 C 240.429 136.025, 242.191 134, 241.916 134 C 241.641 134, 239.429 136.025, 237 138.500 M 245.174 146.314 C 243.253 148.359, 243 149.748, 243 158.242 C 243 167.436, 242.885 167.945, 240.365 169.927 C 238.916 171.067, 236.904 172, 235.894 172 C 232.735 172, 217.861 177.849, 211.725 181.505 C 208.497 183.427, 204.863 185, 203.649 185 C 202.260 185, 199.055 182.591, 195 178.500 C 189.174 172.622, 188.169 172, 184.491 172 C 180.959 172, 179.805 172.629, 175.712 176.784 C 171.681 180.877, 171 182.146, 171 185.563 C 171 189.152, 171.660 190.212, 177.500 196 C 181.639 200.103, 184 203.254, 184 204.677 C 184 205.906, 182.641 209.217, 180.980 212.035 C 177.057 218.688, 173.571 227.037, 171.665 234.343 C 169.298 243.420, 168.418 244, 157.019 244 C 148.204 244, 147.156 244.205, 145.174 246.314 C 143.341 248.266, 143 249.805, 143 256.127 C 143 263.038, 143.220 263.837, 145.805 266.313 C 148.449 268.847, 149.156 269, 158.182 269 C 169.143 269, 169.363 269.135, 171.450 277.146 C 173.657 285.621, 176.708 293.133, 180.501 299.431 C 182.425 302.627, 184 306.213, 184 307.400 C 184 308.728, 181.501 312.034, 177.500 316 C 171.389 322.056, 171 322.716, 171 327.009 C 171 331.138, 171.458 332.027, 175.784 336.288 C 182.868 343.265, 185.321 342.966, 194.568 334 C 198.538 330.150, 202.499 327, 203.369 327 C 204.239 327, 209.124 329.225, 214.225 331.944 C 219.326 334.664, 227.286 337.978, 231.914 339.309 C 236.665 340.675, 240.910 342.524, 241.664 343.555 C 242.547 344.763, 243 348.473, 243 354.504 C 243 363.193, 243.133 363.753, 245.805 366.313 C 248.304 368.708, 249.374 369, 255.630 369 C 261.880 369, 262.918 368.717, 265.076 366.424 C 267.244 364.121, 267.553 362.724, 268 353.212 L 268.500 342.576 272 341.373 C 273.925 340.711, 278.757 339.177, 282.737 337.964 C 286.717 336.750, 293.431 333.787, 297.658 331.379 C 301.884 328.970, 305.988 327, 306.777 327 C 307.567 327, 311.462 330.150, 315.432 334 C 324.883 343.164, 327.226 343.372, 334.784 335.719 C 342.323 328.085, 342.114 325.832, 333 316.432 C 329.150 312.462, 326 308.567, 326 307.777 C 326 306.988, 327.970 302.884, 330.379 298.658 C 332.787 294.431, 335.750 287.717, 336.964 283.737 C 338.177 279.757, 339.711 274.925, 340.373 273 L 341.576 269.500 352.212 269 C 361.724 268.553, 363.121 268.244, 365.424 266.076 C 367.725 263.910, 368 262.889, 368 256.513 C 368 249.997, 367.755 249.140, 365.195 246.687 C 362.577 244.179, 361.793 244, 353.418 244 C 344.066 244, 340 242.588, 340 239.341 C 340 235.851, 333.630 219.048, 329.949 212.825 C 327.777 209.154, 326 205.443, 326 204.578 C 326 203.713, 329.150 199.690, 333 195.637 C 341.999 186.163, 342.290 183.680, 335.216 176.712 C 330.944 172.505, 329.950 172, 325.937 172 C 321.732 172, 321.026 172.420, 315 178.500 C 311.457 182.075, 307.911 185, 307.121 185 C 306.331 185, 300.693 182.544, 294.592 179.541 C 288.492 176.539, 280.575 173.349, 277 172.452 C 273.425 171.555, 269.938 170.356, 269.250 169.788 C 268.407 169.092, 268 165.599, 268 159.065 C 268 149.753, 267.890 149.269, 265.195 146.687 C 262.660 144.258, 261.669 144, 254.870 144 C 248.301 144, 247.073 144.293, 245.174 146.314 M 356.500 154 C 359.766 157.300, 362.662 160, 362.937 160 C 363.212 160, 360.766 157.300, 357.500 154 C 354.234 150.700, 351.338 148, 351.063 148 C 350.788 148, 353.234 150.700, 356.500 154 M 342.500 169 C 346.320 172.850, 349.671 176, 349.946 176 C 350.221 176, 347.320 172.850, 343.500 169 C 339.680 165.150, 336.329 162, 336.054 162 C 335.779 162, 338.680 165.150, 342.500 169 M 159.328 185.500 C 159.333 189.350, 159.513 190.802, 159.730 188.728 C 159.946 186.653, 159.943 183.503, 159.722 181.728 C 159.501 179.952, 159.324 181.650, 159.328 185.500 M 241 194.560 C 218.224 199.469, 198.377 219.569, 193.479 242.685 C 186.837 274.029, 204.731 305.649, 235 316.060 C 243.916 319.126, 260.967 319.880, 270.019 317.607 C 292.570 311.945, 310.707 293.963, 316.524 271.500 C 318.526 263.768, 318.529 248.252, 316.530 240.500 C 310.835 218.418, 292.911 200.732, 270.391 194.972 C 261.406 192.674, 250.461 192.521, 241 194.560 M 137 238.500 C 134.571 240.975, 132.809 243, 133.084 243 C 133.359 243, 135.571 240.975, 138 238.500 C 140.429 236.025, 142.191 234, 141.916 234 C 141.641 234, 139.429 236.025, 137 238.500 M 399.370 256 C 399.370 261.775, 399.535 264.137, 399.737 261.250 C 399.939 258.363, 399.939 253.637, 399.737 250.750 C 399.535 247.863, 399.370 250.225, 399.370 256 M 131.365 256.500 C 131.368 262, 131.536 264.122, 131.738 261.216 C 131.941 258.311, 131.939 253.811, 131.734 251.216 C 131.528 248.622, 131.363 251, 131.365 256.500 M 388.232 256 C 388.232 257.925, 388.438 258.712, 388.689 257.750 C 388.941 256.788, 388.941 255.213, 388.689 254.250 C 388.438 253.287, 388.232 254.075, 388.232 256 M 159.336 327 C 159.336 331.125, 159.513 332.813, 159.728 330.750 C 159.944 328.688, 159.944 325.313, 159.728 323.250 C 159.513 321.188, 159.336 322.875, 159.336 327" stroke="none" fill="#24809d" fill-rule="evenodd"/><path d="M 230.991 153.705 C 230.721 158.217, 230.859 161.549, 231.297 161.108 C 231.735 160.667, 231.956 156.975, 231.788 152.903 L 231.482 145.500 230.991 153.705 M 310.966 166.750 L 305.500 172.500 311.250 167.034 C 316.592 161.956, 317.458 161, 316.716 161 C 316.560 161, 313.972 163.588, 310.966 166.750 M 344.024 200.475 C 341.050 203.487, 338.816 206.091, 339.059 206.262 C 339.301 206.433, 341.934 203.969, 344.909 200.787 C 351.764 193.452, 351.168 193.242, 344.024 200.475 M 147.750 232.732 C 150.088 232.943, 153.912 232.943, 156.250 232.732 C 158.588 232.522, 156.675 232.349, 152 232.349 C 147.325 232.349, 145.412 232.522, 147.750 232.732 M 353.750 232.732 C 356.087 232.943, 359.913 232.943, 362.250 232.732 C 364.587 232.522, 362.675 232.349, 358 232.349 C 353.325 232.349, 351.413 232.522, 353.750 232.732 M 372.462 274.250 L 367.500 279.500 372.750 274.538 C 375.637 271.808, 378 269.446, 378 269.288 C 378 268.541, 377.074 269.372, 372.462 274.250 M 164.966 312.750 L 159.500 318.500 165.250 313.034 C 170.592 307.956, 171.458 307, 170.716 307 C 170.560 307, 167.972 309.587, 164.966 312.750 M 160 336.275 C 160 336.426, 163.488 339.914, 167.750 344.025 L 175.500 351.500 168.025 343.750 C 161.082 336.552, 160 335.544, 160 336.275 M 198.966 345.750 L 193.500 351.500 199.250 346.034 C 202.412 343.028, 205 340.440, 205 340.284 C 205 339.542, 204.044 340.408, 198.966 345.750 M 161 350.500 C 163.987 353.525, 166.657 356, 166.932 356 C 167.207 356, 164.987 353.525, 162 350.500 C 159.013 347.475, 156.343 345, 156.068 345 C 155.793 345, 158.013 347.475, 161 350.500 M 231.349 359 C 231.349 363.675, 231.522 365.587, 231.732 363.250 C 231.943 360.913, 231.943 357.087, 231.732 354.750 C 231.522 352.413, 231.349 354.325, 231.349 359 M 272.462 374.250 L 267.500 379.500 272.750 374.538 C 275.637 371.808, 278 369.446, 278 369.288 C 278 368.541, 277.074 369.372, 272.462 374.250" stroke="none" fill="#d59896" fill-rule="evenodd"/><path d="M 263 102.313 C 263 102.485, 264.462 103.948, 266.250 105.563 L 269.500 108.500 266.563 105.250 C 263.825 102.221, 263 101.540, 263 102.313 M 392 118.500 C 394.987 121.525, 397.657 124, 397.932 124 C 398.207 124, 395.987 121.525, 393 118.500 C 390.013 115.475, 387.343 113, 387.068 113 C 386.793 113, 389.013 115.475, 392 118.500 M 272 138.500 C 274.987 141.525, 277.657 144, 277.932 144 C 278.207 144, 275.987 141.525, 273 138.500 C 270.013 135.475, 267.343 133, 267.068 133 C 266.793 133, 269.013 135.475, 272 138.500 M 254.996 143.747 C 261.463 144.050, 262.905 144.468, 265.496 146.799 L 268.500 149.500 265.563 146.250 C 262.701 143.084, 262.432 143.005, 255.063 143.199 L 247.500 143.397 254.996 143.747 M 278.349 154 C 278.349 158.675, 278.522 160.588, 278.732 158.250 C 278.943 155.912, 278.943 152.088, 278.732 149.750 C 278.522 147.412, 278.349 149.325, 278.349 154 M 157.437 150.250 L 154.500 153.500 157.750 150.563 C 160.779 147.825, 161.460 147, 160.687 147 C 160.515 147, 159.052 148.463, 157.437 150.250 M 242.365 158.500 C 242.368 164, 242.536 166.122, 242.738 163.216 C 242.941 160.311, 242.939 155.811, 242.734 153.216 C 242.528 150.622, 242.363 153, 242.365 158.500 M 347 159.313 C 347 159.485, 348.462 160.948, 350.250 162.563 L 353.500 165.500 350.563 162.250 C 347.825 159.221, 347 158.540, 347 159.313 M 167.477 169.250 L 159.500 177.500 167.750 169.523 C 175.412 162.115, 176.456 161, 175.727 161 C 175.576 161, 171.864 164.713, 167.477 169.250 M 199.214 167.494 C 202.356 170.746, 205.073 173.202, 205.251 172.953 C 205.428 172.704, 202.857 170.044, 199.537 167.041 L 193.500 161.583 199.214 167.494 M 175.216 176.281 C 170.680 180.875, 170 182.083, 170 185.558 C 170 189.210, 170.623 190.153, 177.250 196.527 L 184.500 203.500 177.750 196.475 C 171.705 190.184, 171 189.031, 171 185.437 C 171 181.970, 171.650 180.785, 175.784 176.712 C 179.877 172.681, 181.146 172, 184.563 172 C 188.152 172, 189.212 172.660, 195 178.500 C 198.543 182.075, 201.745 185, 202.115 185 C 202.484 185, 199.538 181.850, 195.568 178 C 189.099 171.728, 187.937 171, 184.390 171 C 180.937 171, 179.766 171.674, 175.216 176.281 M 323.750 171.706 C 324.988 171.944, 327.012 171.944, 328.250 171.706 C 329.488 171.467, 328.475 171.272, 326 171.272 C 323.525 171.272, 322.512 171.467, 323.750 171.706 M 333.469 195.250 L 327.500 201.500 333.750 195.531 C 339.556 189.987, 340.458 189, 339.719 189 C 339.564 189, 336.751 191.813, 333.469 195.250 M 259.250 193.689 C 260.212 193.941, 261.788 193.941, 262.750 193.689 C 263.712 193.438, 262.925 193.232, 261 193.232 C 259.075 193.232, 258.288 193.438, 259.250 193.689 M 242.275 205.539 C 223.902 210.487, 209.299 225.237, 204.489 243.703 C 197.678 269.852, 213.897 298.140, 240.298 306.159 C 249.717 309.020, 265.816 308.463, 274 304.993 C 289.782 298.303, 301.747 284.794, 306.052 268.806 C 307.693 262.714, 307.404 248.907, 305.498 242.304 C 300.195 223.934, 284.289 208.877, 266.201 205.105 C 259.107 203.626, 248.676 203.815, 242.275 205.539 M 299.500 212 C 302.209 214.750, 304.650 217, 304.925 217 C 305.200 217, 303.209 214.750, 300.500 212 C 297.791 209.250, 295.350 207, 295.075 207 C 294.800 207, 296.791 209.250, 299.500 212 M 372 238.500 C 374.987 241.525, 377.657 244, 377.932 244 C 378.207 244, 375.987 241.525, 373 238.500 C 370.013 235.475, 367.343 233, 367.068 233 C 366.793 233, 369.013 235.475, 372 238.500 M 152.784 243.738 C 155.689 243.941, 160.189 243.939, 162.784 243.734 C 165.378 243.528, 163 243.363, 157.500 243.365 C 152 243.368, 149.878 243.536, 152.784 243.738 M 352.988 243.748 C 361.658 244.053, 362.735 244.315, 365.488 246.791 L 368.500 249.500 365.563 246.250 L 362.626 243 353.063 243.208 L 343.500 243.415 352.988 243.748 M 111.232 248 C 111.232 249.925, 111.438 250.713, 111.689 249.750 C 111.941 248.787, 111.941 247.213, 111.689 246.250 C 111.438 245.287, 111.232 246.075, 111.232 248 M 449.378 256 C 449.378 262.325, 449.541 264.913, 449.739 261.750 C 449.937 258.587, 449.937 253.412, 449.739 250.250 C 449.541 247.088, 449.378 249.675, 449.378 256 M 192.252 251.500 C 192.263 253.700, 192.468 254.482, 192.707 253.238 C 192.946 251.994, 192.937 250.194, 192.687 249.238 C 192.437 248.282, 192.241 249.300, 192.252 251.500 M 142.199 256.063 C 142.005 263.432, 142.084 263.701, 145.250 266.563 L 148.500 269.500 145.799 266.496 C 143.468 263.905, 143.050 262.463, 142.747 255.996 L 142.397 248.500 142.199 256.063 M 192.252 260.500 C 192.263 262.700, 192.468 263.482, 192.707 262.238 C 192.946 260.994, 192.937 259.194, 192.687 258.238 C 192.437 257.282, 192.241 258.300, 192.252 260.500 M 111.232 265 C 111.232 266.925, 111.438 267.712, 111.689 266.750 C 111.941 265.788, 111.941 264.212, 111.689 263.250 C 111.438 262.288, 111.232 263.075, 111.232 265 M 137.500 274 C 140.209 276.750, 142.650 279, 142.925 279 C 143.200 279, 141.209 276.750, 138.500 274 C 135.791 271.250, 133.350 269, 133.075 269 C 132.800 269, 134.791 271.250, 137.500 274 M 148.750 279.732 C 151.088 279.943, 154.912 279.943, 157.250 279.732 C 159.588 279.522, 157.675 279.349, 153 279.349 C 148.325 279.349, 146.412 279.522, 148.750 279.732 M 349.652 279.750 C 349.396 280.163, 351.732 280.373, 354.843 280.217 C 364.610 279.730, 365.788 279.305, 357.809 279.150 C 353.579 279.067, 349.908 279.337, 349.652 279.750 M 210.500 301 C 212.648 303.200, 214.631 305, 214.906 305 C 215.181 305, 213.648 303.200, 211.500 301 C 209.352 298.800, 207.369 297, 207.094 297 C 206.819 297, 208.352 298.800, 210.500 301 M 344 312.500 C 346.987 315.525, 349.657 318, 349.932 318 C 350.207 318, 347.987 315.525, 345 312.500 C 342.013 309.475, 339.343 307, 339.068 307 C 338.793 307, 341.013 309.475, 344 312.500 M 333 316.500 C 336.543 320.075, 339.667 323, 339.942 323 C 340.217 323, 337.543 320.075, 334 316.500 C 330.457 312.925, 327.333 310, 327.058 310 C 326.783 310, 329.457 312.925, 333 316.500 M 170.272 327 C 170.272 329.475, 170.467 330.488, 170.706 329.250 C 170.944 328.012, 170.944 325.988, 170.706 324.750 C 170.467 323.512, 170.272 324.525, 170.272 327 M 193.971 334.750 L 187.500 341.500 194.250 335.029 C 197.963 331.470, 201 328.432, 201 328.279 C 201 327.543, 199.982 328.480, 193.971 334.750 M 315 334.500 C 318.543 338.075, 321.667 341, 321.942 341 C 322.217 341, 319.543 338.075, 316 334.500 C 312.457 330.925, 309.333 328, 309.058 328 C 308.783 328, 311.457 330.925, 315 334.500 M 334.462 336.250 L 329.500 341.500 334.750 336.538 C 337.637 333.808, 340 331.446, 340 331.288 C 340 330.541, 339.074 331.372, 334.462 336.250 M 342 343.500 C 337.903 347.625, 334.775 351, 335.050 351 C 335.325 351, 338.903 347.625, 343 343.500 C 347.097 339.375, 350.225 336, 349.950 336 C 349.675 336, 346.097 339.375, 342 343.500 M 352.437 347.250 L 349.500 350.500 352.750 347.563 C 354.538 345.948, 356 344.485, 356 344.313 C 356 343.540, 355.175 344.221, 352.437 347.250 M 242.208 354.063 L 242 363.626 245.250 366.563 L 248.500 369.500 245.791 366.488 C 243.315 363.735, 243.053 362.658, 242.748 353.988 L 242.415 344.500 242.208 354.063 M 278.422 351.344 C 278.138 352.083, 278.045 356.020, 278.214 360.094 L 278.522 367.500 279.011 358.748 C 279.498 350.026, 279.400 348.794, 278.422 351.344 M 345.437 354.250 L 342.500 357.500 345.750 354.563 C 348.779 351.825, 349.460 351, 348.687 351 C 348.515 351, 347.052 352.462, 345.437 354.250 M 237.500 374 C 240.209 376.750, 242.650 379, 242.925 379 C 243.200 379, 241.209 376.750, 238.500 374 C 235.791 371.250, 233.350 369, 233.075 369 C 232.800 369, 234.791 371.250, 237.500 374 M 249.250 379.739 C 252.412 379.937, 257.587 379.937, 260.750 379.739 C 263.913 379.541, 261.325 379.378, 255 379.378 C 248.675 379.378, 246.088 379.541, 249.250 379.739 M 392.469 393.250 L 386.500 399.500 392.750 393.531 C 398.556 387.987, 399.458 387, 398.719 387 C 398.564 387, 395.751 389.813, 392.469 393.250 M 156 389 L 113.500 389.533 156.250 389.766 C 184.239 389.919, 199 389.655, 199 389 C 199 388.450, 198.887 388.105, 198.750 388.234 C 198.613 388.362, 179.375 388.707, 156 389 M 247.762 389.707 C 249.006 389.946, 250.806 389.937, 251.762 389.687 C 252.718 389.437, 251.700 389.241, 249.500 389.252 C 247.300 389.263, 246.518 389.468, 247.762 389.707 M 259.250 389.689 C 260.212 389.941, 261.788 389.941, 262.750 389.689 C 263.712 389.438, 262.925 389.232, 261 389.232 C 259.075 389.232, 258.288 389.438, 259.250 389.689 M 242.784 400.738 C 245.689 400.941, 250.189 400.939, 252.784 400.734 C 255.378 400.528, 253 400.363, 247.500 400.365 C 242 400.368, 239.878 400.536, 242.784 400.738 M 235.005 437.495 L 222.540 449.990 128.520 450.250 L 34.500 450.510 128.514 450.755 L 222.529 451 235.500 438 C 242.634 430.850, 248.246 425, 247.971 425 C 247.695 425, 241.861 430.623, 235.005 437.495 M 322.345 450.250 C 322.090 450.663, 352.621 450.896, 390.191 450.769 C 427.761 450.641, 447.700 450.417, 434.500 450.271 C 372.252 449.579, 322.765 449.570, 322.345 450.250 M 243.789 450.741 C 247.248 450.937, 252.648 450.936, 255.789 450.738 C 258.930 450.540, 256.100 450.380, 249.500 450.382 C 242.900 450.384, 240.330 450.546, 243.789 450.741" stroke="none" fill="#102931" fill-rule="evenodd"/></svg>