<?xml version="1.0" encoding="UTF-8"?>
<svg version="1.1" xmlns="http://www.w3.org/2000/svg" width="96" height="96">
<path d="M0 0 C0.99 0 1.98 0 3 0 C2.67 1.65 2.34 3.3 2 5 C3.918125 4.5978125 3.918125 4.5978125 5.875 4.1875 C6.59429687 4.03667969 7.31359375 3.88585937 8.0546875 3.73046875 C10.37046549 3.07691162 10.37046549 3.07691162 12 0 C14.625 -0.1875 14.625 -0.1875 17 0 C16.79375 1.051875 16.5875 2.10375 16.375 3.1875 C16.00036896 6.99624887 16.28369933 8.66835752 18 12 C18.66 10.68 19.32 9.36 20 8 C22.27120764 8.00600055 24.54233286 8.05599796 26.8125 8.125 C28.70935547 8.15980469 28.70935547 8.15980469 30.64453125 8.1953125 C34 9 34 9 35.88671875 11.8671875 C36.61073759 13.90460191 37.31624122 15.94872365 38 18 C39.485 18.495 39.485 18.495 41 19 C42.75 21.875 42.75 21.875 44 25 C43.505 26.485 43.505 26.485 43 28 C42.34 28 41.68 28 41 28 C40.96261719 28.556875 40.92523438 29.11375 40.88671875 29.6875 C40.40439364 35.28625424 39.16758121 39.81665364 37 45 C36.01 45 35.02 45 34 45 C33.62875 45.928125 33.62875 45.928125 33.25 46.875 C31.79371361 49.35068687 30.62187494 49.95125002 28 51 C28 51.99 28 52.98 28 54 C28.9075 54.103125 29.815 54.20625 30.75 54.3125 C34.03071844 55.00649813 35.60889095 55.70085668 38 58 C38 58.66 38 59.32 38 60 C39.485 60.495 39.485 60.495 41 61 C42.4286926 65.28607779 42.40556428 69.15242937 41.4375 73.5625 C39.94585213 76.09181596 38.82534414 76.92812725 36.5 78.625 C32.24868533 81.98362697 31.84939348 85.6100515 31.19140625 90.8046875 C31.12824219 91.52914062 31.06507812 92.25359375 31 93 C30.236875 93.12375 29.47375 93.2475 28.6875 93.375 C25.79732864 93.88102792 25.79732864 93.88102792 23 96 C17.68957468 96.7809449 13.37756817 96.89136764 8.8125 93.9375 C6.57469908 90.3107192 6.53391293 88.19478364 7 84 C8 81 8 81 11 79 C8.03 79.495 8.03 79.495 5 80 C4.67 81.65 4.34 83.3 4 85 C3.34 85 2.68 85 2 85 C2 85.66 2 86.32 2 87 C1.01 87 0.02 87 -1 87 C-1.45375 86.505 -1.9075 86.01 -2.375 85.5 C-3.96224523 83.72110101 -3.96224523 83.72110101 -6.6875 83.8125 C-7.450625 83.874375 -8.21375 83.93625 -9 84 C-9 84.66 -9 85.32 -9 86 C-11.9375 85.25 -11.9375 85.25 -15 84 C-16.406617 81.09299153 -16.04092665 80.12277995 -15 77 C-15.721875 76.34 -16.44375 75.68 -17.1875 75 C-21.83455485 70.24672675 -25.25204563 65.68051731 -25.8125 58.875 C-25.60528978 52.94049931 -22.93719511 48.65033349 -19.67114258 43.85888672 C-18.38062982 41.97697592 -18.38062982 41.97697592 -17 39 C-17.60288753 36.12550014 -17.60288753 36.12550014 -19 34 C-21.87364791 33.58253392 -21.87364791 33.58253392 -25 34 C-26.78969026 36.42672567 -26.78969026 36.42672567 -28 39 C-28.66 39 -29.32 39 -30 39 C-30.33 40.98 -30.66 42.96 -31 45 C-30.34 45 -29.68 45 -29 45 C-29.495 47.475 -29.495 47.475 -30 50 C-31.32 49.67 -32.64 49.34 -34 49 C-34.99 43.555 -34.99 43.555 -36 38 C-37.3921875 37.814375 -37.3921875 37.814375 -38.8125 37.625 C-42 37 -42 37 -45 35 C-44.1875 33.0625 -44.1875 33.0625 -43 31 C-42.01 30.67 -41.02 30.34 -40 30 C-40 29.34 -40 28.68 -40 28 C-38.09006699 26.59821431 -36.12046293 25.27709628 -34.125 24 C-29.8284482 21.2901117 -29.8284482 21.2901117 -26 18 C-23.06640625 17.98828125 -23.06640625 17.98828125 -19.5625 18.3125 C-18.40878906 18.41175781 -17.25507813 18.51101562 -16.06640625 18.61328125 C-13 19 -13 19 -10 20 C-10 20.66 -10 21.32 -10 22 C-8.68 22.33 -7.36 22.66 -6 23 C-6.33 21.35 -6.66 19.7 -7 18 C-7.99 17.67 -8.98 17.34 -10 17 C-9.67 15.68 -9.34 14.36 -9 13 C-7.35 12.67 -5.7 12.34 -4 12 C-3.896875 10.948125 -3.79375 9.89625 -3.6875 8.8125 C-3.01842175 5.10215698 -2.3175287 2.94147873 0 0 Z M21 16 C22 18 22 18 22 18 Z M20 24 C19.67 25.65 19.34 27.3 19 29 C18.01 29.33 17.02 29.66 16 30 C16 30.66 16 31.32 16 32 C15.34 32 14.68 32 14 32 C13.67 33.32 13.34 34.64 13 36 C12.34 36 11.68 36 11 36 C11.33 36.99 11.66 37.98 12 39 C16.44835937 36.77582031 18.61043594 34.35242026 21 30 C21.79070548 26.76961158 21.79070548 26.76961158 22 24 C21.34 24 20.68 24 20 24 Z M16 76 C16 76.33 16 76.66 16 77 C18.0809844 77.24959784 20.16500812 77.47394907 22.25 77.6875 C23.41015625 77.81511719 24.5703125 77.94273438 25.765625 78.07421875 C29.32466794 77.99254989 30.48177725 77.42472438 33 75 C32.67 73.68 32.34 72.36 32 71 C25.80344864 70.64591135 21.41619811 73.2289219 16 76 Z M12 84 C11.18828772 86.55519921 11.18828772 86.55519921 11 89 C13.84102878 91.08899175 15.49631363 91.98972069 19.0625 92.0625 C23.57283608 90.43110184 24.93739661 87.12520677 27 83 C22.38828171 81.46276057 15.9922351 80.64652251 12 84 Z " fill="#015A45" transform="translate(49,0)"/>
<path d="M0 0 C3.63 0.33 7.26 0.66 11 1 C14.781703 9.02179424 16.04208784 14.61991764 13.30859375 23.16015625 C9.55117142 31.90500911 1.81486152 36.36038497 -6.30859375 40.5859375 C-10.8171917 42.95475093 -15.38283726 45.38283726 -19 49 C-19.30661482 53.13930001 -19.55747038 56.5900395 -17 60 C-13.56375142 62.48173509 -10.0397878 63.7786688 -6 65 C-7 67 -7 67 -10.05859375 68.10546875 C-14.04032581 69.14078005 -17.96372321 69.33199941 -22.0625 69.3125 C-23.0844043 69.33666992 -23.0844043 69.33666992 -24.12695312 69.36132812 C-28.83689946 69.36585257 -32.01028802 68.47898771 -36 66 C-38.6875 63.125 -38.6875 63.125 -41 60 C-41.598125 59.278125 -42.19625 58.55625 -42.8125 57.8125 C-45.14191053 52.29547505 -44.84339708 46.23500227 -42.75 40.6875 C-41.49177182 38.755221 -40.17102934 36.86312595 -38.8125 35 C-36.75866692 31.60055214 -36.39350648 29.89888694 -37 26 C-37.93597315 23.98048938 -37.93597315 23.98048938 -40 23 C-43.36857502 21.91526382 -43.36857502 21.91526382 -47 23 C-49.47711058 26.0990925 -51.26525865 29.4415562 -53 33 C-53.66 32.67 -54.32 32.34 -55 32 C-54.01 28.535 -54.01 28.535 -53 25 C-52.34 25 -51.68 25 -51 25 C-51 24.01 -51 23.02 -51 22 C-55.81122847 23.52555966 -55.81122847 23.52555966 -59 27 C-60.65 26.67 -62.3 26.34 -64 26 C-64 25.34 -64 24.68 -64 24 C-62.02 23.67 -60.04 23.34 -58 23 C-57.67 22.01 -57.34 21.02 -57 20 C-56.34 20.33 -55.68 20.66 -55 21 C-54.46117187 20.525625 -53.92234375 20.05125 -53.3671875 19.5625 C-49.03374506 16.70214195 -44.07861045 16.68174041 -39 17 C-35.75474071 18.19152509 -35.15422119 19.0678656 -33 22 C-31.9865928 27.97910246 -33.59138393 32.11746597 -35.9765625 37.58984375 C-37.28696829 40.67579938 -38.15472824 43.7597916 -39 47 C-38.505 47.495 -38.505 47.495 -38 48 C-37.9175 46.948125 -37.835 45.89625 -37.75 44.8125 C-36.94347778 40.71267873 -35.92278322 38.92278322 -33 36 C-32.34 36 -31.68 36 -31 36 C-30.67 35.01 -30.34 34.02 -30 33 C-28.68733482 31.64631404 -27.35432675 30.31200404 -26 29 C-24.03385981 25.06771961 -24.96945453 21.12218188 -26 17 C-21.05 17.99 -21.05 17.99 -16 19 C-15.67 18.34 -15.34 17.68 -15 17 C-15 17.66 -15 18.32 -15 19 C-14.34 19 -13.68 19 -13 19 C-12.690625 17.906875 -12.38125 16.81375 -12.0625 15.6875 C-11.41662103 13.44592006 -10.7376883 11.2130649 -10 9 C-10.53109375 9.66515625 -11.0621875 10.3303125 -11.609375 11.015625 C-14 13 -14 13 -17.015625 13.171875 C-18.08296875 13.03265625 -19.1503125 12.8934375 -20.25 12.75 C-21.32765625 12.62109375 -22.4053125 12.4921875 -23.515625 12.359375 C-24.33546875 12.24078125 -25.1553125 12.1221875 -26 12 C-26.12375 11.195625 -26.2475 10.39125 -26.375 9.5625 C-26.58125 8.716875 -26.7875 7.87125 -27 7 C-27.66 6.67 -28.32 6.34 -29 6 C-27.0625 6.375 -27.0625 6.375 -25 7 C-24.505 7.99 -24.505 7.99 -24 9 C-19.79958306 9.32944447 -17.68663481 9.48827365 -14.1875 7 C-13.465625 6.34 -12.74375 5.68 -12 5 C-11.34 5 -10.68 5 -10 5 C-9.67 4.01 -9.34 3.02 -9 2 C-8.34 2 -7.68 2 -7 2 C-7.74621758 16.19678944 -11.75191788 26.98939102 -21 38 C-20.443125 37.54625 -19.88625 37.0925 -19.3125 36.625 C-17 35 -17 35 -14.75 34.125 C-8.30712783 31.48927957 -3.19309123 28.38618246 0 22 C0.84859231 19.02504993 1.48499136 16.04939328 2 13 C0.35 13 -1.3 13 -3 13 C-3.33 13.99 -3.66 14.98 -4 16 C-3.67 13.69 -3.34 11.38 -3 9 C-2.34 9 -1.68 9 -1 9 C-1 9.66 -1 10.32 -1 11 C1.97 11.495 1.97 11.495 5 12 C5.33 11.34 5.66 10.68 6 10 C6 10.66 6 11.32 6 12 C7.32 12 8.64 12 10 12 C10 12.66 10 13.32 10 14 C10.99 13.67 11.98 13.34 13 13 C13 12.01 13 11.02 13 10 C10.66785852 8.79371992 8.50357861 7.8345262 6 7 C6 6.34 6 5.68 6 5 C3.69 5.33 1.38 5.66 -1 6 C-0.67 4.02 -0.34 2.04 0 0 Z " fill="#C9E1A6" transform="translate(70,9)"/>
<path d="M0 0 C0.99 0 1.98 0 3 0 C2.67 1.65 2.34 3.3 2 5 C3.918125 4.5978125 3.918125 4.5978125 5.875 4.1875 C6.59429687 4.03667969 7.31359375 3.88585937 8.0546875 3.73046875 C10.37046549 3.07691162 10.37046549 3.07691162 12 0 C14.625 -0.1875 14.625 -0.1875 17 0 C16.79375 1.051875 16.5875 2.10375 16.375 3.1875 C16.00036896 6.99624887 16.28369933 8.66835752 18 12 C18.66 10.68 19.32 9.36 20 8 C24.29 8.33 28.58 8.66 33 9 C32.67 10.32 32.34 11.64 32 13 C32 12.01 32 11.02 32 10 C28.7 10 25.4 10 22 10 C21.67 11.32 21.34 12.64 21 14 C22.98 14 24.96 14 27 14 C27 14.66 27 15.32 27 16 C27.598125 16.12375 28.19625 16.2475 28.8125 16.375 C31 17 31 17 34 19 C34.6875 21.125 34.6875 21.125 35 23 C33.68 23 32.36 23 31 23 C31 22.34 31 21.68 31 21 C29.9275 21.020625 28.855 21.04125 27.75 21.0625 C24.85209576 21.0142016 22.71387859 20.86844115 20 20 C20 19.34 20 18.68 20 18 C19.34 18 18.68 18 18 18 C18 19.32 18 20.64 18 22 C19.65 22 21.3 22 23 22 C22.83563122 28.58969398 21.78922024 33.28155641 17 38 C11.27521734 42.33481486 4.68325368 45.4446383 -2 48 C-1.47212891 47.35998047 -1.47212891 47.35998047 -0.93359375 46.70703125 C7.85250445 35.58103223 12.13172253 24.86083954 14 11 C11.45172201 13.01491748 8.98464619 15.01454572 6.625 17.25 C3.18377431 19.54415046 1.05763995 19.52599036 -3 19 C-4.9375 17.5 -4.9375 17.5 -6 16 C-5.505 18.475 -5.505 18.475 -5 21 C-3.04233719 21.08082094 -1.08373272 21.13910778 0.875 21.1875 C1.96554688 21.22230469 3.05609375 21.25710937 4.1796875 21.29296875 C5.57574219 21.14794922 5.57574219 21.14794922 7 21 C7.66 20.01 8.32 19.02 9 18 C9.66 18 10.32 18 11 18 C11.495 16.515 11.495 16.515 12 15 C12.65004704 20.20037633 10.4136823 23.54977327 8 28 C4.37 28 0.74 28 -3 28 C-3.03017858 30.12825897 -3.03017858 30.12825897 -2.75 32.75 C-3.07517203 36.97723636 -4.33314635 38.71771858 -7 42 C-8.1748863 42.95326002 -9.36319335 43.89015188 -10.5625 44.8125 C-14.68574901 48.13056519 -15.82509542 51.96469467 -17 57 C-17.66 56.67 -18.32 56.34 -19 56 C-17.91321927 51.8340072 -16.59638241 48.01191282 -14.875 44.0625 C-12.97718534 39.35735195 -12.21663173 36.04837332 -13 31 C-14.61105221 28.15758972 -14.61105221 28.15758972 -18 27 C-24.46809906 26.73198485 -29.57854381 27.32257843 -35 31 C-35.33 30.67 -35.66 30.34 -36 30 C-36.4125 30.495 -36.825 30.99 -37.25 31.5 C-39 33 -39 33 -43 33 C-43 33.66 -43 34.32 -43 35 C-41.35 35.33 -39.7 35.66 -38 36 C-37.79375 35.360625 -37.5875 34.72125 -37.375 34.0625 C-36 32 -36 32 -32.875 31.25 C-31.451875 31.12625 -31.451875 31.12625 -30 31 C-30 31.99 -30 32.98 -30 34 C-30.66 34 -31.32 34 -32 34 C-32.33 36.31 -32.66 38.62 -33 41 C-30.88577906 38.44835403 -29.0945388 36.20258315 -27.6875 33.1875 C-26 31 -26 31 -22.5625 30.4375 C-19 31 -19 31 -16.5625 32.625 C-14.56279544 35.66455094 -14.45662499 37.42924991 -15 41 C-15.99 41.66 -16.98 42.32 -18 43 C-17.79375 42.071875 -17.5875 41.14375 -17.375 40.1875 C-16.63307034 36.84826598 -16.63307034 36.84826598 -19 34 C-21.95720628 33.33319632 -21.95720628 33.33319632 -25 34 C-26.78969026 36.42672567 -26.78969026 36.42672567 -28 39 C-28.66 39 -29.32 39 -30 39 C-30.33 40.98 -30.66 42.96 -31 45 C-30.34 45 -29.68 45 -29 45 C-29.495 47.475 -29.495 47.475 -30 50 C-31.32 49.67 -32.64 49.34 -34 49 C-34.99 43.555 -34.99 43.555 -36 38 C-37.3921875 37.814375 -37.3921875 37.814375 -38.8125 37.625 C-42 37 -42 37 -45 35 C-44.1875 33.0625 -44.1875 33.0625 -43 31 C-42.01 30.67 -41.02 30.34 -40 30 C-40 29.34 -40 28.68 -40 28 C-38.09006699 26.59821431 -36.12046293 25.27709628 -34.125 24 C-29.8284482 21.2901117 -29.8284482 21.2901117 -26 18 C-23.06640625 17.98828125 -23.06640625 17.98828125 -19.5625 18.3125 C-18.40878906 18.41175781 -17.25507813 18.51101562 -16.06640625 18.61328125 C-13 19 -13 19 -10 20 C-10 20.66 -10 21.32 -10 22 C-8.68 22.33 -7.36 22.66 -6 23 C-6.33 21.35 -6.66 19.7 -7 18 C-7.99 17.67 -8.98 17.34 -10 17 C-9.67 15.68 -9.34 14.36 -9 13 C-7.35 12.67 -5.7 12.34 -4 12 C-3.896875 10.948125 -3.79375 9.89625 -3.6875 8.8125 C-3.01842175 5.10215698 -2.3175287 2.94147873 0 0 Z M21 16 C22 18 22 18 22 18 Z M20 24 C19.67 25.65 19.34 27.3 19 29 C18.01 29.33 17.02 29.66 16 30 C16 30.66 16 31.32 16 32 C15.34 32 14.68 32 14 32 C13.67 33.32 13.34 34.64 13 36 C12.34 36 11.68 36 11 36 C11.33 36.99 11.66 37.98 12 39 C16.44835937 36.77582031 18.61043594 34.35242026 21 30 C21.79070548 26.76961158 21.79070548 26.76961158 22 24 C21.34 24 20.68 24 20 24 Z " fill="#171F1B" transform="translate(49,0)"/>
<path d="M0 0 C0.495 0.99 0.495 0.99 1 2 C1.66 2.309375 2.32 2.61875 3 2.9375 C5 4 5 4 6 7 C5.34 7 4.68 7 4 7 C4.02320313 7.73605469 4.04640625 8.47210938 4.0703125 9.23046875 C4.08835938 10.20628906 4.10640625 11.18210937 4.125 12.1875 C4.14820313 13.15042969 4.17140625 14.11335938 4.1953125 15.10546875 C3.87986281 19.78043321 2.5000709 22.9199376 -1 26 C-1.556875 26.556875 -2.11375 27.11375 -2.6875 27.6875 C-3.120625 28.120625 -3.55375 28.55375 -4 29 C-4.33 28.34 -4.66 27.68 -5 27 C-5.66 27.33 -6.32 27.66 -7 28 C-7.12375 28.639375 -7.2475 29.27875 -7.375 29.9375 C-8 32 -8 32 -10.0625 33.25 C-10.701875 33.4975 -11.34125 33.745 -12 34 C-12.33 33.34 -12.66 32.68 -13 32 C-13.8971875 32.680625 -13.8971875 32.680625 -14.8125 33.375 C-16.50590652 34.63295913 -18.24477086 35.82984724 -20 37 C-16.37471432 37.20140476 -14.13498292 36.85776765 -11 35 C-11 36.32 -11 37.64 -11 39 C-11.99 39.495 -11.99 39.495 -13 40 C-12.93039063 40.96421875 -12.86078125 41.9284375 -12.7890625 42.921875 C-12.34848999 53.20190024 -12.34848999 53.20190024 -15.5 57.0625 C-20.25573184 58.33635674 -22.75394355 57.22370792 -27 55 C-27.94875 54.525625 -28.8975 54.05125 -29.875 53.5625 C-33.42039355 50.95559298 -33.84750461 48.91497234 -34.5625 44.625 C-33.86462423 40.12757834 -32.5613809 38.99914948 -29.046875 36.328125 C-26.53094587 34.6956519 -23.9504285 33.39363643 -21.2421875 32.11328125 C-12.7333979 27.8885338 -4.85343109 23.14053731 -1.19921875 13.99609375 C0.14469354 9.32439865 0.17261371 4.83318376 0 0 Z " fill="#057D63" transform="translate(84,17)"/>
<path d="M0 0 C5.445 0.495 5.445 0.495 11 1 C14.781703 9.02179424 16.04208784 14.61991764 13.30859375 23.16015625 C9.15666561 32.82316389 -0.03087003 37.49596512 -9 42 C-10.22783203 42.62455078 -10.22783203 42.62455078 -11.48046875 43.26171875 C-13.31419984 44.18669815 -15.15610652 45.09544848 -17 46 C-17.66 44.68 -18.32 43.36 -19 42 C-17.68 41.34 -16.36 40.68 -15 40 C-16.32 39.01 -17.64 38.02 -19 37 C-17 35 -17 35 -14.875 34.1875 C-8.39127246 31.50943862 -3.22287667 28.44575335 0 22 C0.84859231 19.02504993 1.48499136 16.04939328 2 13 C0.35 13 -1.3 13 -3 13 C-3.33 13.99 -3.66 14.98 -4 16 C-3.67 13.69 -3.34 11.38 -3 9 C-2.34 9 -1.68 9 -1 9 C-1 9.66 -1 10.32 -1 11 C1.97 11.495 1.97 11.495 5 12 C5.33 11.34 5.66 10.68 6 10 C6 10.66 6 11.32 6 12 C7.32 12 8.64 12 10 12 C10 12.66 10 13.32 10 14 C10.99 13.67 11.98 13.34 13 13 C13 12.01 13 11.02 13 10 C10.66785852 8.79371992 8.50357861 7.8345262 6 7 C6 6.34 6 5.68 6 5 C3.69 5.33 1.38 5.66 -1 6 C-0.67 4.02 -0.34 2.04 0 0 Z " fill="#C0DAAC" transform="translate(70,9)"/>
<path d="M0 0 C1.1548611 2.30972221 1.49503467 4.47517333 2 7 C2.33 7.66 2.66 8.32 3 9 C3.22858114 11.0374763 3.41024278 13.08040303 3.5625 15.125 C3.68818359 16.76855469 3.68818359 16.76855469 3.81640625 18.4453125 C3.87699219 19.28835937 3.93757813 20.13140625 4 21 C4.33 20.67 4.66 20.34 5 20 C6.66617115 19.95936168 8.33388095 19.957279 10 20 C9.83563122 26.58969398 8.78922024 31.28155641 4 36 C-1.72478266 40.33481486 -8.31674632 43.4446383 -15 46 C-14.47212891 45.35998047 -14.47212891 45.35998047 -13.93359375 44.70703125 C-5.14749555 33.58103223 -0.86827747 22.86083954 1 9 C-1.54827799 11.01491748 -4.01535381 13.01454572 -6.375 15.25 C-9.74423402 17.49615601 -12.0329888 17.31113813 -16 17 C-17.48708673 14.08866118 -18.13810905 12.59847254 -17.390625 9.359375 C-17.01421875 8.49828125 -16.6378125 7.6371875 -16.25 6.75 C-15.70085938 5.44289063 -15.70085938 5.44289063 -15.140625 4.109375 C-14 2 -14 2 -12 1 C-12 2.32 -12 3.64 -12 5 C-11.34 4.67 -10.68 4.34 -10 4 C-7.3276379 3.86584528 -4.67749512 3.95681459 -2 4 C-1.34 2.68 -0.68 1.36 0 0 Z M7 22 C6.67 23.65 6.34 25.3 6 27 C5.01 27.33 4.02 27.66 3 28 C3 28.66 3 29.32 3 30 C2.34 30 1.68 30 1 30 C0.67 31.32 0.34 32.64 0 34 C-0.66 34 -1.32 34 -2 34 C-1.67 34.99 -1.34 35.98 -1 37 C3.44835937 34.77582031 5.61043594 32.35242026 8 28 C8.79070548 24.76961158 8.79070548 24.76961158 9 22 C8.34 22 7.68 22 7 22 Z " fill="#126F59" transform="translate(62,2)"/>
<path d="M0 0 C0.66 0.99 1.32 1.98 2 3 C2.53625 3.680625 3.0725 4.36125 3.625 5.0625 C5 7 5 7 5 9 C5.99 9.33 6.98 9.66 8 10 C9.75 12.875 9.75 12.875 11 16 C10.505 17.485 10.505 17.485 10 19 C9.34 19 8.68 19 8 19 C7.96261719 19.556875 7.92523438 20.11375 7.88671875 20.6875 C7.40439364 26.28625424 6.16758121 30.81665364 4 36 C3.01 36 2.02 36 1 36 C0.7525 36.61875 0.505 37.2375 0.25 37.875 C-1.20628639 40.35068687 -2.37812506 40.95125002 -5 42 C-5 42.99 -5 43.98 -5 45 C-3.63875 45.1546875 -3.63875 45.1546875 -2.25 45.3125 C1.03071844 46.00649813 2.60889095 46.70085668 5 49 C5 49.66 5 50.32 5 51 C6.485 51.495 6.485 51.495 8 52 C9.4286926 56.28607779 9.40556428 60.15242937 8.4375 64.5625 C6.94585213 67.09181596 5.82534414 67.92812725 3.5 69.625 C-0.75131467 72.98362697 -1.15060652 76.6100515 -1.80859375 81.8046875 C-1.90333984 82.89136719 -1.90333984 82.89136719 -2 84 C-5.33333333 84.66666667 -8.66666667 85.33333333 -12 86 C-11.195625 85.38125 -10.39125 84.7625 -9.5625 84.125 C-6.96125481 82.25835959 -6.96125481 82.25835959 -6 80 C-5.34 80 -4.68 80 -4 80 C-4 78.68 -4 77.36 -4 76 C-6.2477975 78.05233685 -7.0022242 79.00667261 -8 82 C-11.44936913 84.52069283 -14.85777431 84.36984158 -19 84 C-21.4375 82.5 -21.4375 82.5 -23 81 C-22.6875 77.625 -22.6875 77.625 -22 74 C-18.19492743 71.46328496 -16.32846045 71.9474339 -11.8125 72.1875 C-6.20272114 72.33399399 -1.99881732 72.00698032 2.54296875 68.484375 C5.93803017 65.02559929 6.95344866 62.30343752 7.125 57.5 C5.84315883 53.51204968 4.57359178 51.65571465 1.3203125 49.08984375 C-3.2143624 46.95992069 -8.11676143 47.56700348 -13 48 C-11.02 47.505 -11.02 47.505 -9 47 C-9 45.68 -9 44.36 -9 43 C-9.556875 43.495 -10.11375 43.99 -10.6875 44.5 C-13.38162983 46.24754367 -14.85375007 46.26218749 -18 46 C-18.33 45.34 -18.66 44.68 -19 44 C-18.071875 43.54625 -17.14375 43.0925 -16.1875 42.625 C-12.96078611 41.0578367 -12.96078611 41.0578367 -10 39 C-9.67 39.66 -9.34 40.32 -9 41 C-7.515 40.505 -7.515 40.505 -6 40 C-5.67 38.35 -5.34 36.7 -5 35 C-3.515 34.505 -3.515 34.505 -2 34 C-1.67 34.66 -1.34 35.32 -1 36 C-0.54625 35.030625 -0.0925 34.06125 0.375 33.0625 C2 30 2 30 4 29 C4.98428396 26.04714811 5.30088994 23.58949019 5.5625 20.5 C5.64628906 19.5409375 5.73007813 18.581875 5.81640625 17.59375 C5.9481288 15.73281868 6 13.86558736 6 12 C5.195625 11.2575 4.39125 10.515 3.5625 9.75 C0.49304945 6.45595551 0.25957787 4.4128238 0 0 Z M-21 75 C-21.81171228 77.55519921 -21.81171228 77.55519921 -22 80 C-19.15897122 82.08899175 -17.50368637 82.98972069 -13.9375 83.0625 C-9.42716392 81.43110184 -8.06260339 78.12520677 -6 74 C-10.61171829 72.46276057 -17.0077649 71.64652251 -21 75 Z " fill="#051410" transform="translate(82,9)"/>
<path d="M0 0 C0.33 0.99 0.66 1.98 1 3 C-0.375 5.5625 -0.375 5.5625 -2 8 C-4.00715052 12.01430104 -3.6241812 16.64791087 -3 21 C-0.74518892 25.71775857 2.39370765 30.66368283 7.1484375 33.1015625 C10.66508684 34.20954791 13.97202327 34.38368103 17.625 34.375 C18.33140625 34.37338867 19.0378125 34.37177734 19.765625 34.37011719 C27.83267925 34.1831082 34.25237077 31.47285534 41.3125 27.75 C44.6700139 26.00932169 47.16996331 25.37650566 51 26 C52.9375 27.25 52.9375 27.25 54 29 C53.91753488 31.63888381 53.28750789 32.69852114 51.47265625 34.6015625 C47.37910663 36.91671379 42.79280093 36.39835621 38.19921875 36.3515625 C34.15499297 36.43655499 32.57211669 36.47674421 29.484375 39.30078125 C27.61028796 42.70866057 27.69959271 45.16980709 28 49 C31.53411321 51.12046792 34.94393835 51.53199289 39 52 C39 52.33 39 52.66 39 53 C31.87791495 53.60356653 31.87791495 53.60356653 28 50.9375 C25.52739937 47.30586782 25.52074961 45.3132535 26 41 C27 38 27 38 30 36 C27.03 36.495 27.03 36.495 24 37 C23.67 38.65 23.34 40.3 23 42 C22.34 42 21.68 42 21 42 C21 42.66 21 43.32 21 44 C20.01 44 19.02 44 18 44 C17.54625 43.505 17.0925 43.01 16.625 42.5 C15.03775477 40.72110101 15.03775477 40.72110101 12.3125 40.8125 C11.549375 40.874375 10.78625 40.93625 10 41 C10 41.66 10 42.32 10 43 C7.0625 42.25 7.0625 42.25 4 41 C2.593383 38.09299153 2.95907335 37.12277995 4 34 C3.278125 33.34 2.55625 32.68 1.8125 32 C-2.95547145 27.12304635 -6.2724628 22.62134139 -6.6875 15.625 C-6.43359346 9.36489053 -3.6161911 4.96150029 0 0 Z M35 33 C35 33.33 35 33.66 35 34 C37.0809844 34.24959784 39.16500812 34.47394907 41.25 34.6875 C42.41015625 34.81511719 43.5703125 34.94273438 44.765625 35.07421875 C48.32466794 34.99254989 49.48177725 34.42472438 52 32 C51.67 30.68 51.34 29.36 51 28 C44.80344864 27.64591135 40.41619811 30.2289219 35 33 Z " fill="#071411" transform="translate(30,43)"/>
<path d="M0 0 C2.23916209 3.49309286 2.25618489 6.4726148 1.5625 10.4375 C0.69245517 13.0354376 -0.3217387 15.52133777 -1.41015625 18.03515625 C-2.73996481 21.14478463 -3.68208653 24.14115031 -4.4375 27.4375 C-4.1075 28.0975 -3.7775 28.7575 -3.4375 29.4375 C-4.375 31.5625 -4.375 31.5625 -5.4375 33.4375 C-3.7875 33.4375 -2.1375 33.4375 -0.4375 33.4375 C-0.4375 33.7675 -0.4375 34.0975 -0.4375 34.4375 C-4.8925 34.9325 -4.8925 34.9325 -9.4375 35.4375 C-9.8362528 27.13753435 -9.24274035 22.28468677 -4.25 15.4375 C-2.19616692 12.03805214 -1.83100648 10.33638694 -2.4375 6.4375 C-3.37347315 4.41798938 -3.37347315 4.41798938 -5.4375 3.4375 C-8.80607502 2.35276382 -8.80607502 2.35276382 -12.4375 3.4375 C-14.91461058 6.5365925 -16.70275865 9.8790562 -18.4375 13.4375 C-19.0975 13.1075 -19.7575 12.7775 -20.4375 12.4375 C-19.7775 10.1275 -19.1175 7.8175 -18.4375 5.4375 C-17.7775 5.4375 -17.1175 5.4375 -16.4375 5.4375 C-16.4375 4.4475 -16.4375 3.4575 -16.4375 2.4375 C-21.24872847 3.96305966 -21.24872847 3.96305966 -24.4375 7.4375 C-26.0875 7.1075 -27.7375 6.7775 -29.4375 6.4375 C-29.4375 5.7775 -29.4375 5.1175 -29.4375 4.4375 C-27.4575 4.1075 -25.4775 3.7775 -23.4375 3.4375 C-23.1075 2.4475 -22.7775 1.4575 -22.4375 0.4375 C-21.7775 0.7675 -21.1175 1.0975 -20.4375 1.4375 C-19.921875 0.963125 -19.40625 0.48875 -18.875 0 C-13.28734143 -3.58183241 -5.58328594 -3.57902945 0 0 Z " fill="#CAE1BE" transform="translate(35.4375,28.5625)"/>
<path d="M0 0 C1.1034375 0.09410156 2.206875 0.18820313 3.34375 0.28515625 C6.77088366 0.99348709 8.8418914 1.64653347 11.5 3.9375 C12.8276535 10.72431616 11.92053772 18.48273275 9.5 24.9375 C7.8540349 26.62461423 6.18762851 28.2920622 4.5 29.9375 C3.53449394 32.2703979 3.03565984 34.45398619 2.5 36.9375 C1.84 36.6075 1.18 36.2775 0.5 35.9375 C1.58678073 31.7715072 2.90361759 27.94941282 4.625 24 C6.52281466 19.29485195 7.28336827 15.98587332 6.5 10.9375 C4.88894779 8.09508972 4.88894779 8.09508972 1.5 6.9375 C-4.96809906 6.66948485 -10.07854381 7.26007843 -15.5 10.9375 C-15.83 10.6075 -16.16 10.2775 -16.5 9.9375 C-17.49 10.9275 -18.48 11.9175 -19.5 12.9375 C-20.49 12.6075 -21.48 12.2775 -22.5 11.9375 C-21.76394531 11.40640625 -21.02789062 10.8753125 -20.26953125 10.328125 C-19.29371094 9.62171875 -18.31789063 8.9153125 -17.3125 8.1875 C-16.34957031 7.49140625 -15.38664063 6.7953125 -14.39453125 6.078125 C-11.49254256 4.01314922 -11.49254256 4.01314922 -9.04296875 1.66796875 C-5.74454923 -0.57657786 -3.92690041 -0.39911254 0 0 Z " fill="#048164" transform="translate(29.5,20.0625)"/>
<path d="M0 0 C1.73443359 0.16048828 1.73443359 0.16048828 3.50390625 0.32421875 C4.65761719 0.42347656 5.81132812 0.52273437 7 0.625 C10.06640625 1.01171875 10.06640625 1.01171875 13.06640625 2.01171875 C13.06640625 2.67171875 13.06640625 3.33171875 13.06640625 4.01171875 C14.05640625 4.01171875 15.04640625 4.01171875 16.06640625 4.01171875 C16.56140625 6.48671875 16.56140625 6.48671875 17.06640625 9.01171875 C16.07640625 9.34171875 15.08640625 9.67171875 14.06640625 10.01171875 C14.06640625 8.69171875 14.06640625 7.37171875 14.06640625 6.01171875 C10.64049755 3.98465296 7.57018122 3.5103425 3.62890625 3.13671875 C2.51644531 3.01554687 1.40398438 2.894375 0.2578125 2.76953125 C-3.76531663 3.07483603 -5.0063333 4.30388612 -7.93359375 7.01171875 C-10.81140583 9.0953805 -13.70649265 11.1529439 -16.60546875 13.20703125 C-19.00858168 14.80092474 -19.00858168 14.80092474 -19.93359375 17.01171875 C-18.28359375 17.34171875 -16.63359375 17.67171875 -14.93359375 18.01171875 C-14.72734375 17.37234375 -14.52109375 16.73296875 -14.30859375 16.07421875 C-12.93359375 14.01171875 -12.93359375 14.01171875 -9.80859375 13.26171875 C-8.38546875 13.13796875 -8.38546875 13.13796875 -6.93359375 13.01171875 C-6.93359375 14.00171875 -6.93359375 14.99171875 -6.93359375 16.01171875 C-7.59359375 16.01171875 -8.25359375 16.01171875 -8.93359375 16.01171875 C-9.26359375 18.32171875 -9.59359375 20.63171875 -9.93359375 23.01171875 C-7.81937281 20.46007278 -6.02813255 18.2143019 -4.62109375 15.19921875 C-2.93359375 13.01171875 -2.93359375 13.01171875 0.50390625 12.44921875 C4.06640625 13.01171875 4.06640625 13.01171875 6.50390625 14.63671875 C8.50361081 17.67626969 8.60978126 19.44096866 8.06640625 23.01171875 C7.07640625 23.67171875 6.08640625 24.33171875 5.06640625 25.01171875 C5.27265625 24.08359375 5.47890625 23.15546875 5.69140625 22.19921875 C6.43333591 18.85998473 6.43333591 18.85998473 4.06640625 16.01171875 C1.10919997 15.34491507 1.10919997 15.34491507 -1.93359375 16.01171875 C-3.72328401 18.43844442 -3.72328401 18.43844442 -4.93359375 21.01171875 C-5.59359375 21.01171875 -6.25359375 21.01171875 -6.93359375 21.01171875 C-7.26359375 22.99171875 -7.59359375 24.97171875 -7.93359375 27.01171875 C-7.27359375 27.01171875 -6.61359375 27.01171875 -5.93359375 27.01171875 C-6.26359375 28.66171875 -6.59359375 30.31171875 -6.93359375 32.01171875 C-8.25359375 31.68171875 -9.57359375 31.35171875 -10.93359375 31.01171875 C-11.59359375 27.38171875 -12.25359375 23.75171875 -12.93359375 20.01171875 C-13.86171875 19.88796875 -14.78984375 19.76421875 -15.74609375 19.63671875 C-18.93359375 19.01171875 -18.93359375 19.01171875 -21.93359375 17.01171875 C-21.12109375 15.07421875 -21.12109375 15.07421875 -19.93359375 13.01171875 C-18.94359375 12.68171875 -17.95359375 12.35171875 -16.93359375 12.01171875 C-16.93359375 11.35171875 -16.93359375 10.69171875 -16.93359375 10.01171875 C-15.02366074 8.60993306 -13.05405668 7.28881503 -11.05859375 6.01171875 C-1.72017326 0.00687153 -1.72017326 0.00687153 0 0 Z " fill="#0E1A16" transform="translate(25.93359375,17.98828125)"/>
<path d="M0 0 C0.639375 0.7425 1.27875 1.485 1.9375 2.25 C5.34158774 5.70327976 9.54650144 7.26323259 14 9 C13 11 13 11 9.94140625 12.10546875 C5.95967419 13.14078005 2.03627679 13.33199941 -2.0625 13.3125 C-2.74376953 13.32861328 -3.42503906 13.34472656 -4.12695312 13.36132812 C-8.83346023 13.36584927 -12.01273453 12.4780943 -16 10 C-18.375 7.3125 -18.375 7.3125 -20 5 C-19.36191406 5.01160156 -18.72382813 5.02320312 -18.06640625 5.03515625 C-17.24011719 5.04417969 -16.41382813 5.05320312 -15.5625 5.0625 C-14.32693359 5.07990234 -14.32693359 5.07990234 -13.06640625 5.09765625 C-11.00836062 5.23267348 -11.00836062 5.23267348 -10 4 C-8.48530552 3.76807135 -6.96245438 3.58784762 -5.4375 3.4375 C-4.19806641 3.31181641 -4.19806641 3.31181641 -2.93359375 3.18359375 C-1.97646484 3.09271484 -1.97646484 3.09271484 -1 3 C-0.67 2.01 -0.34 1.02 0 0 Z " fill="#C2DCA6" transform="translate(50,65)"/>
<path d="M0 0 C0.66 0 1.32 0 2 0 C1.21540507 10.65966904 -0.40214503 18.70544836 -6 28 C-7.32 27.67 -8.64 27.34 -10 27 C-9.67 25.35 -9.34 23.7 -9 22 C-9.66 22 -10.32 22 -11 22 C-11.99 24.475 -11.99 24.475 -13 27 C-13.99 26.67 -14.98 26.34 -16 26 C-15.979375 24.9275 -15.95875 23.855 -15.9375 22.75 C-15.85984566 18.91933442 -15.85984566 18.91933442 -17 15 C-13.7 15.66 -10.4 16.32 -7 17 C-6.67 16.34 -6.34 15.68 -6 15 C-6 15.66 -6 16.32 -6 17 C-5.34 17 -4.68 17 -4 17 C-3.690625 15.906875 -3.38125 14.81375 -3.0625 13.6875 C-2.41662103 11.44592006 -1.7376883 9.2130649 -1 7 C-1.53109375 7.66515625 -2.0621875 8.3303125 -2.609375 9.015625 C-5 11 -5 11 -8.015625 11.171875 C-9.08296875 11.03265625 -10.1503125 10.8934375 -11.25 10.75 C-12.32765625 10.62109375 -13.4053125 10.4921875 -14.515625 10.359375 C-15.33546875 10.24078125 -16.1553125 10.1221875 -17 10 C-17.12375 9.195625 -17.2475 8.39125 -17.375 7.5625 C-17.684375 6.2940625 -17.684375 6.2940625 -18 5 C-18.66 4.67 -19.32 4.34 -20 4 C-18.0625 4.375 -18.0625 4.375 -16 5 C-15.67 5.66 -15.34 6.32 -15 7 C-10.79958306 7.32944447 -8.68663481 7.48827365 -5.1875 5 C-4.1046875 4.01 -4.1046875 4.01 -3 3 C-2.34 3 -1.68 3 -1 3 C-0.67 2.01 -0.34 1.02 0 0 Z " fill="#99C09C" transform="translate(61,11)"/>
<path d="M0 0 C0.33 0.66 0.66 1.32 1 2 C1.66 2.309375 2.32 2.61875 3 2.9375 C5 4 5 4 6 7 C5.34 7 4.68 7 4 7 C4.02320312 7.73605469 4.04640625 8.47210938 4.0703125 9.23046875 C4.09738281 10.69419922 4.09738281 10.69419922 4.125 12.1875 C4.14820312 13.15042969 4.17140625 14.11335938 4.1953125 15.10546875 C3.87986281 19.78043321 2.5000709 22.9199376 -1 26 C-1.556875 26.556875 -2.11375 27.11375 -2.6875 27.6875 C-3.120625 28.120625 -3.55375 28.55375 -4 29 C-4.33 28.34 -4.66 27.68 -5 27 C-5.66 27.33 -6.32 27.66 -7 28 C-7.12375 28.639375 -7.2475 29.27875 -7.375 29.9375 C-8 32 -8 32 -10.0625 33.25 C-10.701875 33.4975 -11.34125 33.745 -12 34 C-12.66 32.02 -13.32 30.04 -14 28 C-13.46890625 27.63648437 -12.9378125 27.27296875 -12.390625 26.8984375 C-5.97743795 22.33430803 -2.02480536 17.91753665 -0.3046875 10.1015625 C0.18805886 6.70287608 0.12247744 3.42936833 0 0 Z " fill="#0B584A" transform="translate(84,17)"/>
<path d="M0 0 C0.33 1.32 0.66 2.64 1 4 C4.3 3.34 7.6 2.68 11 2 C11 5 11 8 11 11 C9.03277992 12.38123963 7.03131672 13.71488126 5 15 C4.67 15.33 4.34 15.66 4 16 C1.66702567 16.04092937 -0.66705225 16.04241723 -3 16 C-4.49949134 13.07467655 -5.14860091 11.60881344 -4.35546875 8.359375 C-3.97003906 7.49828125 -3.58460937 6.6371875 -3.1875 5.75 C-2.62095703 4.44289063 -2.62095703 4.44289063 -2.04296875 3.109375 C-1 1 -1 1 0 0 Z " fill="#089275" transform="translate(49,3)"/>
<path d="M0 0 C2 2 2 2 2.1953125 4.6015625 C2.13020833 7.40104167 2.06510417 10.20052083 2 13 C-1.96 13.66 -5.92 14.32 -10 15 C-10 10.38 -10 5.76 -10 1 C-3.55769231 -0.28846154 -3.55769231 -0.28846154 0 0 Z " fill="#1E6657" transform="translate(81,56)"/>
<path d="M0 0 C1.32 0.66 2.64 1.32 4 2 C3.34 2 2.68 2 2 2 C1.67 3.32 1.34 4.64 1 6 C1.99 6 2.98 6 4 6 C2.03357424 11.92008601 -1.71515367 15.75506992 -7 19 C-9.99340969 19.09252357 -11.2674679 18.39533554 -14 17 C-11.30097208 11.70575294 -8.84389711 8.47496967 -4 5 C-3.34 5 -2.68 5 -2 5 C-1.34 3.35 -0.68 1.7 0 0 Z " fill="#C5DEAA" transform="translate(50,32)"/>
<path d="M0 0 C1.9375 1.25 1.9375 1.25 3 3 C2.91753488 5.63888381 2.28750789 6.69852114 0.47265625 8.6015625 C-3.62089337 10.91671379 -8.20719907 10.39835621 -12.80078125 10.3515625 C-16.84500703 10.43655499 -18.42788331 10.47674421 -21.515625 13.30078125 C-23.38971204 16.70866057 -23.30040729 19.16980709 -23 23 C-19.46588679 25.12046792 -16.05606165 25.53199289 -12 26 C-12 26.33 -12 26.66 -12 27 C-19.12208505 27.60356653 -19.12208505 27.60356653 -23 24.9375 C-25.47260063 21.30586782 -25.47925039 19.3132535 -25 15 C-22.60639063 7.81917189 -15.32701198 4.38870472 -9 1 C-5.72429875 -0.09190042 -3.43202271 -0.28600189 0 0 Z M-16 7 C-16 7.33 -16 7.66 -16 8 C-13.9190156 8.24959784 -11.83499188 8.47394907 -9.75 8.6875 C-8.58984375 8.81511719 -7.4296875 8.94273438 -6.234375 9.07421875 C-2.67533206 8.99254989 -1.51822275 8.42472438 1 6 C0.67 4.68 0.34 3.36 0 2 C-6.19655136 1.64591135 -10.58380189 4.2289219 -16 7 Z " fill="#091916" transform="translate(81,69)"/>
<path d="M0 0 C4.29 0.33 8.58 0.66 13 1 C12.67 2.32 12.34 3.64 12 5 C12 4.01 12 3.02 12 2 C8.7 2 5.4 2 2 2 C1.67 3.32 1.34 4.64 1 6 C2.98 6 4.96 6 7 6 C7 6.66 7 7.32 7 8 C7.598125 8.12375 8.19625 8.2475 8.8125 8.375 C11 9 11 9 14 11 C14.6875 13.125 14.6875 13.125 15 15 C13.68 15 12.36 15 11 15 C11 14.34 11 13.68 11 13 C9.9275 13.020625 8.855 13.04125 7.75 13.0625 C4.85209576 13.0142016 2.71387859 12.86844115 0 12 C0 11.34 0 10.68 0 10 C-0.66 10 -1.32 10 -2 10 C-2.33 11.65 -2.66 13.3 -3 15 C-3.33 15 -3.66 15 -4 15 C-4.08121924 13.39667209 -4.13929134 11.79215974 -4.1875 10.1875 C-4.22230469 9.29417969 -4.25710937 8.40085937 -4.29296875 7.48046875 C-3.94515736 4.53566563 -3.21802102 3.86045592 -1 2 C-0.67 1.34 -0.34 0.68 0 0 Z M1 8 C2 10 2 10 2 10 Z " fill="#1A2A24" transform="translate(69,8)"/>
<path d="M0 0 C5.62285408 3.94796137 5.62285408 3.94796137 7.1875 8.3125 C6.94086921 13.16290562 5.22568942 16.39286659 2 20 C-0.17578125 21.23046875 -0.17578125 21.23046875 -2 22 C-2.66 21.34 -3.32 20.68 -4 20 C-3.34 19.608125 -2.68 19.21625 -2 18.8125 C0.29166667 17.14583333 0.29166667 17.14583333 0.25 14.3125 C0.1675 13.549375 0.085 12.78625 0 12 C-0.66 11.67 -1.32 11.34 -2 11 C-1.34 11 -0.68 11 0 11 C0 7.37 0 3.74 0 0 Z " fill="#014E41" transform="translate(83,58)"/>
<path d="M0 0 C2 3 2 3 1.8125 5.3125 C1 8 1 8 -0.5 10.9375 C-2.02940029 14.06002559 -2.68642001 16.55062007 -3 20 C-2.67 20.66 -2.34 21.32 -2 22 C-2.9375 24.125 -2.9375 24.125 -4 26 C-2.35 26 -0.7 26 1 26 C1 26.33 1 26.66 1 27 C-1.97 27.33 -4.94 27.66 -8 28 C-8.40046273 19.66444252 -7.70484072 14.89815281 -2.875 7.9375 C-1.08361787 5.13100133 -0.38414771 3.26525557 0 0 Z " fill="#C3DCA5" transform="translate(34,36)"/>
<path d="M0 0 C1.32 0 2.64 0 4 0 C3.66714856 6.32417743 2.53394841 10.44393477 -2 15 C-8.59090909 20 -8.59090909 20 -12 20 C-11.67 18.35 -11.34 16.7 -11 15 C-10.34 15 -9.68 15 -9 15 C-8.87625 14.278125 -8.7525 13.55625 -8.625 12.8125 C-7.75211827 8.88453221 -6.8736676 5.8736676 -4 3 C-2.68 3 -1.36 3 0 3 C0 2.01 0 1.02 0 0 Z M1 1 C0.67 2.65 0.34 4.3 0 6 C-0.99 6.33 -1.98 6.66 -3 7 C-3 7.66 -3 8.32 -3 9 C-3.66 9 -4.32 9 -5 9 C-5.33 10.32 -5.66 11.64 -6 13 C-6.66 13 -7.32 13 -8 13 C-7.67 13.99 -7.34 14.98 -7 16 C-2.55164063 13.77582031 -0.38956406 11.35242026 2 7 C2.79070548 3.76961158 2.79070548 3.76961158 3 1 C2.34 1 1.68 1 1 1 Z " fill="#0D1D18" transform="translate(68,23)"/>
<path d="M0 0 C1.73443359 0.16048828 1.73443359 0.16048828 3.50390625 0.32421875 C4.65761719 0.42347656 5.81132812 0.52273437 7 0.625 C10.06640625 1.01171875 10.06640625 1.01171875 13.06640625 2.01171875 C13.06640625 2.67171875 13.06640625 3.33171875 13.06640625 4.01171875 C14.05640625 4.01171875 15.04640625 4.01171875 16.06640625 4.01171875 C16.56140625 6.48671875 16.56140625 6.48671875 17.06640625 9.01171875 C16.07640625 9.34171875 15.08640625 9.67171875 14.06640625 10.01171875 C14.06640625 8.69171875 14.06640625 7.37171875 14.06640625 6.01171875 C10.64049755 3.98465296 7.57018122 3.5103425 3.62890625 3.13671875 C2.51644531 3.01554687 1.40398438 2.894375 0.2578125 2.76953125 C-3.7816979 3.07607916 -4.99404698 4.28478071 -7.93359375 7.01171875 C-10.03233681 8.60223419 -12.13664602 10.18542814 -14.24609375 11.76171875 C-14.79587891 12.17292969 -15.34566406 12.58414062 -15.91210938 13.0078125 C-17.25205048 14.00985541 -18.59274349 15.01089272 -19.93359375 16.01171875 C-20.59359375 15.68171875 -21.25359375 15.35171875 -21.93359375 15.01171875 C-20.55859375 13.51171875 -20.55859375 13.51171875 -18.93359375 12.01171875 C-18.27359375 12.01171875 -17.61359375 12.01171875 -16.93359375 12.01171875 C-16.93359375 11.35171875 -16.93359375 10.69171875 -16.93359375 10.01171875 C-15.02366074 8.60993306 -13.05405668 7.28881503 -11.05859375 6.01171875 C-1.72017326 0.00687153 -1.72017326 0.00687153 0 0 Z " fill="#061512" transform="translate(25.93359375,17.98828125)"/>
<path d="M0 0 C0.99 0 1.98 0 3 0 C2.67 1.65 2.34 3.3 2 5 C3.27875 4.731875 4.5575 4.46375 5.875 4.1875 C6.59429687 4.03667969 7.31359375 3.88585937 8.0546875 3.73046875 C10.37046549 3.07691162 10.37046549 3.07691162 12 0 C14.625 -0.1875 14.625 -0.1875 17 0 C16.814375 1.03125 16.62875 2.0625 16.4375 3.125 C16.02692918 6.76148442 16.221691 9.45437009 17 13 C14.16625119 9.79663178 13.4794463 7.21912747 13 3 C12.01 4.485 12.01 4.485 11 6 C8.6171875 6.51171875 8.6171875 6.51171875 5.875 6.6875 C4.96492188 6.75324219 4.05484375 6.81898438 3.1171875 6.88671875 C2.06917969 6.94279297 2.06917969 6.94279297 1 7 C0.67 6.01 0.34 5.02 0 4 C-0.26554687 4.71027344 -0.53109375 5.42054688 -0.8046875 6.15234375 C-1.15789063 7.07144531 -1.51109375 7.99054687 -1.875 8.9375 C-2.22304688 9.85402344 -2.57109375 10.77054688 -2.9296875 11.71484375 C-4 14 -4 14 -6 15 C-6 14.01 -6 13.02 -6 12 C-5.34 12 -4.68 12 -4 12 C-3.896875 10.948125 -3.79375 9.89625 -3.6875 8.8125 C-3.01842175 5.10215698 -2.3175287 2.94147873 0 0 Z " fill="#051612" transform="translate(49,0)"/>
<path d="M0 0 C3.63 0.33 7.26 0.66 11 1 C12.32 4.3 13.64 7.6 15 11 C14.34 11.66 13.68 12.32 13 13 C13 12.01 13 11.02 13 10 C10.66785852 8.79371992 8.50357861 7.8345262 6 7 C6 6.34 6 5.68 6 5 C3.69 5.33 1.38 5.66 -1 6 C-0.67 4.02 -0.34 2.04 0 0 Z " fill="#A3B99B" transform="translate(70,9)"/>
<path d="M0 0 C2.9375 0.375 2.9375 0.375 6 1 C6.33 1.66 6.66 2.32 7 3 C6.67 3.66 6.34 4.32 6 5 C5.34 5 4.68 5 4 5 C3.34 6.32 2.68 7.64 2 9 C0.68 8.34 -0.64 7.68 -2 7 C-2 7.66 -2 8.32 -2 9 C-5.75 10.125 -5.75 10.125 -8 9 C-7.875 7.1875 -7.875 7.1875 -7 5 C-5.03384339 3.9349985 -3.03273074 2.93166826 -1 2 C-0.67 1.34 -0.34 0.68 0 0 Z " fill="#D9E5C5" transform="translate(67,35)"/>
<path d="M0 0 C0.33 0 0.66 0 1 0 C0.88652381 1.97986082 0.7589065 3.95891598 0.625 5.9375 C0.55539063 7.03964844 0.48578125 8.14179687 0.4140625 9.27734375 C0.27742188 10.17582031 0.14078125 11.07429688 0 12 C-0.99 12.495 -0.99 12.495 -2 13 C-2.33 12.34 -2.66 11.68 -3 11 C-3.99 11.495 -3.99 11.495 -5 12 C-5.12375 12.639375 -5.2475 13.27875 -5.375 13.9375 C-6 16 -6 16 -8.0625 17.25 C-8.701875 17.4975 -9.34125 17.745 -10 18 C-10.66 16.02 -11.32 14.04 -12 12 C-11.46890625 11.63648438 -10.9378125 11.27296875 -10.390625 10.8984375 C-5.82560766 7.64961129 -2.86005013 4.80488421 0 0 Z " fill="#1F6757" transform="translate(82,33)"/>
<path d="M0 0 C0.5775 0.226875 1.155 0.45375 1.75 0.6875 C1.16892368 4.4477985 0.09800504 7.21785032 -1.8125 10.5 C-2.26753906 11.29019531 -2.72257812 12.08039062 -3.19140625 12.89453125 C-3.54074219 13.48621094 -3.89007813 14.07789063 -4.25 14.6875 C-4.91 14.3575 -5.57 14.0275 -6.25 13.6875 C-5.59 11.3775 -4.93 9.0675 -4.25 6.6875 C-3.59 6.6875 -2.93 6.6875 -2.25 6.6875 C-2.25 5.6975 -2.25 4.7075 -2.25 3.6875 C-7.06122847 5.21305966 -7.06122847 5.21305966 -10.25 8.6875 C-11.9 8.3575 -13.55 8.0275 -15.25 7.6875 C-15.25 7.0275 -15.25 6.3675 -15.25 5.6875 C-13.27 5.3575 -11.29 5.0275 -9.25 4.6875 C-8.92 3.6975 -8.59 2.7075 -8.25 1.6875 C-7.59 2.0175 -6.93 2.3475 -6.25 2.6875 C-5.38375 1.9140625 -5.38375 1.9140625 -4.5 1.125 C-2.25 -0.3125 -2.25 -0.3125 0 0 Z " fill="#AEC7A3" transform="translate(21.25,27.3125)"/>
<path d="M0 0 C-5.75 3 -5.75 3 -8 3 C-8.33 4.65 -8.66 6.3 -9 8 C-11.38564077 7.42415568 -13.66682784 6.77772405 -16 6 C-16 5.01 -16 4.02 -16 3 C-18.97 2.505 -18.97 2.505 -22 2 C-22.33 2.99 -22.66 3.98 -23 5 C-23.33 4.01 -23.66 3.02 -24 2 C-22 0 -22 0 -18.4453125 -0.16015625 C-17.00501824 -0.13752686 -15.56485816 -0.10454896 -14.125 -0.0625 C-9.80620487 0.04180006 -3.6216577 -1.81082885 0 0 Z " fill="#114234" transform="translate(62,77)"/>
<path d="M0 0 C0.33 0.99 0.66 1.98 1 3 C-0.375 5.5625 -0.375 5.5625 -2 8 C-4.00715052 12.01430104 -3.6241812 16.64791087 -3 21 C-0.27857463 26.69405924 3.23660682 31.31041652 9 34 C6.8125 34.3125 6.8125 34.3125 4 34 C-0.97591595 30.01926724 -5.2519284 24.72919275 -6.5234375 18.390625 C-6.97001377 10.86262496 -4.36148962 5.9840676 0 0 Z " fill="#1D2920" transform="translate(30,43)"/>
<path d="M0 0 C0.66 0.33 1.32 0.66 2 1 C1 4 1 4 -0.5 6.4375 C-1.83385289 8.71616536 -2.52465537 10.43313898 -3 13 C-3.66 13 -4.32 13 -5 13 C-5 14.98 -5 16.96 -5 19 C-8.33333333 20.33333333 -11.66666667 21.66666667 -15 23 C-14.6596875 22.58492187 -14.319375 22.16984375 -13.96875 21.7421875 C-9.5487127 16.12309753 -6.10319131 10.10729765 -2.63671875 3.87890625 C-1 1 -1 1 0 0 Z " fill="#09745B" transform="translate(62,25)"/>
<path d="M0 0 C0.33 0 0.66 0 1 0 C1.63934602 5.11476819 -0.59466453 8.67254378 -3 13 C-5.64 13 -8.28 13 -11 13 C-10.34 11.68 -9.68 10.36 -9 9 C-8.34 9 -7.68 9 -7 9 C-7 8.34 -7 7.68 -7 7 C-9.31 7.33 -11.62 7.66 -14 8 C-14.33 7.34 -14.66 6.68 -15 6 C-14.22914062 6.03480469 -13.45828125 6.06960937 -12.6640625 6.10546875 C-11.15972656 6.14607422 -11.15972656 6.14607422 -9.625 6.1875 C-8.62726562 6.22230469 -7.62953125 6.25710937 -6.6015625 6.29296875 C-5.31378906 6.14794922 -5.31378906 6.14794922 -4 6 C-3.34 5.01 -2.68 4.02 -2 3 C-1.34 3 -0.68 3 0 3 C0 2.01 0 1.02 0 0 Z " fill="#2B6449" transform="translate(60,15)"/>
<path d="M0 0 C-1 1 -1 1 -3.5625 1.0625 C-4.7690625 1.0315625 -4.7690625 1.0315625 -6 1 C-6.33 2.32 -6.66 3.64 -7 5 C-2.39257135 3.78955868 -2.39257135 3.78955868 2 2 C2.33 1.34 2.66 0.68 3 0 C3.99 0.33 4.98 0.66 6 1 C6 1.66 6 2.32 6 3 C4.03277992 4.38123963 2.03131672 5.71488126 0 7 C-0.33 7.33 -0.66 7.66 -1 8 C-3.33297433 8.04092937 -5.66705225 8.04241723 -8 8 C-8.66 6.35 -9.32 4.7 -10 3 C-6.81859267 -0.48439851 -4.56758339 -1.41752588 0 0 Z " fill="#0A886B" transform="translate(54,11)"/>
<path d="M0 0 C-0.33 1.32 -0.66 2.64 -1 4 C-2.051875 4.103125 -3.10375 4.20625 -4.1875 4.3125 C-7.87430754 4.97733415 -9.96638599 5.88566296 -13 8 C-13.33 7.67 -13.66 7.34 -14 7 C-14.99 7.99 -15.98 8.98 -17 10 C-17.99 9.67 -18.98 9.34 -20 9 C-18.25579087 7.67981412 -16.50439909 6.36911398 -14.75 5.0625 C-13.77546875 4.33160156 -12.8009375 3.60070312 -11.796875 2.84765625 C-7.72176277 0.15557792 -4.81337015 -0.13370473 0 0 Z " fill="#128A6E" transform="translate(27,23)"/>
<path d="M0 0 C0 0.99 0 1.98 0 3 C-0.66 3 -1.32 3 -2 3 C-2 4.32 -2 5.64 -2 7 C-2.99 7 -3.98 7 -5 7 C-5.33 7.66 -5.66 8.32 -6 9 C-6 8.34 -6 7.68 -6 7 C-7.3921875 6.8453125 -7.3921875 6.8453125 -8.8125 6.6875 C-12.03254358 5.9929808 -13.02579865 5.52259061 -15 3 C-12.69 3.66 -10.38 4.32 -8 5 C-7.731875 4.360625 -7.46375 3.72125 -7.1875 3.0625 C-5.37365074 -0.08786977 -3.47812867 0 0 0 Z " fill="#121210" transform="translate(19,31)"/>
<path d="M0 0 C0.33 0.66 0.66 1.32 1 2 C2.32796291 2.35412344 3.66216607 2.68521554 5 3 C8 5 8 5 8.6875 7.125 C8.790625 7.74375 8.89375 8.3625 9 9 C7.68 9 6.36 9 5 9 C5 8.34 5 7.68 5 7 C3.9275 7.04125 2.855 7.0825 1.75 7.125 C-1.65747485 7.0114175 -3.20739631 6.78726636 -6 5 C-4.02 4.34 -2.04 3.68 0 3 C0 2.01 0 1.02 0 0 Z " fill="#205F3F" transform="translate(75,14)"/>
<path d="M0 0 C4.95 0.99 4.95 0.99 10 2 C10.33 1.34 10.66 0.68 11 0 C11 0.66 11 1.32 11 2 C11.66 2 12.32 2 13 2 C13 1.34 13 0.68 13 0 C13.66 0.33 14.32 0.66 15 1 C13.515 3.475 13.515 3.475 12 6 C9.36 5.67 6.72 5.34 4 5 C3.67 5.99 3.34 6.98 3 8 C0 2.25 0 2.25 0 0 Z " fill="#D0DEC7" transform="translate(44,26)"/>
<path d="M0 0 C0.556875 0.268125 1.11375 0.53625 1.6875 0.8125 C1.6875 1.4725 1.6875 2.1325 1.6875 2.8125 C0.924375 3.06 0.16125 3.3075 -0.625 3.5625 C-3.69004038 4.98810018 -4.77360282 5.81570024 -6.3125 8.8125 C-6.56313732 12.47964849 -6.56313732 12.47964849 -6.3125 15.8125 C-2.77838679 17.93296792 0.63143835 18.34449289 4.6875 18.8125 C4.6875 19.1425 4.6875 19.4725 4.6875 19.8125 C-2.43458505 20.41606653 -2.43458505 20.41606653 -6.3125 17.75 C-8.78510063 14.11836782 -8.79175039 12.1257535 -8.3125 7.8125 C-6.99723078 3.86669235 -4.60348067 -0.37325519 0 0 Z " fill="#060E0C" transform="translate(64.3125,76.1875)"/>
<path d="M0 0 C1.9375 0.375 1.9375 0.375 4 1 C4.33 1.66 4.66 2.32 5 3 C9.16138263 3.08159574 12.9472484 2.98248524 17 2 C16.34 3.65 15.68 5.3 15 7 C11.04 6.67 7.08 6.34 3 6 C2.67 4.35 2.34 2.7 2 1 C1.34 0.67 0.68 0.34 0 0 Z " fill="#DCEACE" transform="translate(41,15)"/>
<path d="M0 0 C3.86107457 2.57404971 3.94319692 4.61020259 5 9 C2.69 9 0.38 9 -2 9 C-0.68 8.67 0.64 8.34 2 8 C2 6.68 2 5.36 2 4 C1.443125 4.495 0.88625 4.99 0.3125 5.5 C-2.38162983 7.24754367 -3.85375007 7.26218749 -7 7 C-7.33 6.34 -7.66 5.68 -8 5 C-7.05125 4.54625 -6.1025 4.0925 -5.125 3.625 C-1.99686321 2.19761746 -1.99686321 2.19761746 0 0 Z " fill="#071E19" transform="translate(71,48)"/>
<path d="M0 0 C1.0625 1.8125 1.0625 1.8125 2 4 C1 7 1 7 -1.4375 9.25 C-4.53380615 12.57286514 -5.05930698 14.6386051 -6 19 C-6.66 18.67 -7.32 18.34 -8 18 C-6.48255971 12.18314554 -4.65233456 6.40827594 -2 1 C-1.34 0.67 -0.68 0.34 0 0 Z " fill="#259270" transform="translate(38,38)"/>
<path d="M0 0 C-0.33 2.31 -0.66 4.62 -1 7 C-1.99 7 -2.98 7 -4 7 C-4.33 7.99 -4.66 8.98 -5 10 C-5.61875 9.814375 -6.2375 9.62875 -6.875 9.4375 C-9.04160178 8.76313824 -9.04160178 8.76313824 -11 10 C-10.6875 8.0625 -10.6875 8.0625 -10 6 C-9.01 5.67 -8.02 5.34 -7 5 C-6.67 5.66 -6.34 6.32 -6 7 C-5.319375 5.5459375 -5.319375 5.5459375 -4.625 4.0625 C-2.46938776 0 -2.46938776 0 0 0 Z " fill="#04211B" transform="translate(87,38)"/>
<path d="M0 0 C0.66 0 1.32 0 2 0 C2 0.66 2 1.32 2 2 C4.97 2.495 4.97 2.495 8 3 C8.33 2.34 8.66 1.68 9 1 C9 1.66 9 2.32 9 3 C10.32 3 11.64 3 13 3 C13 4.32 13 5.64 13 7 C11.7315625 6.5359375 11.7315625 6.5359375 10.4375 6.0625 C6.9502146 4.98461179 3.61822465 4.43418696 0 4 C-0.33 4.99 -0.66 5.98 -1 7 C-0.67 4.69 -0.34 2.38 0 0 Z " fill="#D7E0C9" transform="translate(67,18)"/>
<path d="M0 0 C1.98 0.66 3.96 1.32 6 2 C6 2.99 6 3.98 6 5 C6.66 5 7.32 5 8 5 C7.34 6.32 6.68 7.64 6 9 C5.34 8.34 4.68 7.68 4 7 C1.93125966 6.3574765 1.93125966 6.3574765 0 6 C0 4.02 0 2.04 0 0 Z " fill="#AECAA4" transform="translate(72,22)"/>
<path d="M0 0 C3.05448544 0.17967561 4.62545344 0.61085596 7.1875 2.1875 C6.8575 3.5075 6.5275 4.8275 6.1875 6.1875 C1.78635603 5.68451212 -0.52445019 4.09977269 -3.8125 1.1875 C-2.8125 0.1875 -2.8125 0.1875 0 0 Z " fill="#E0ECC6" transform="translate(73.8125,31.8125)"/>
<path d="M0 0 C1.12148438 0.08507812 2.24296875 0.17015625 3.3984375 0.2578125 C6.75043534 0.89899369 8.83966311 1.94508493 11.625 3.875 C11.295 4.865 10.965 5.855 10.625 6.875 C10.068125 6.400625 9.51125 5.92625 8.9375 5.4375 C4.21853963 2.24901326 -0.88318092 2.78642227 -6.375 2.875 C-7.365 2.875 -8.355 2.875 -9.375 2.875 C-6.69249162 -0.79680225 -4.31528566 -0.38511703 0 0 Z " fill="#055546" transform="translate(29.375,20.125)"/>
<path d="M0 0 C0.99 0 1.98 0 3 0 C2.91433603 2.912575 2.42089045 4.56798024 0.375 6.66796875 C-1.38391375 8.16091772 -3.16313019 9.60436262 -5 11 C-5.66 10.67 -6.32 10.34 -7 10 C-6.34 9.01 -5.68 8.02 -5 7 C-4.34 7 -3.68 7 -3 7 C-2.814375 6.1028125 -2.814375 6.1028125 -2.625 5.1875 C-2 3 -2 3 0 0 Z " fill="#E0EDC7" transform="translate(48,40)"/>
<path d="M0 0 C3.3 0 6.6 0 10 0 C10 1.32 10 2.64 10 4 C8.68 4.33 7.36 4.66 6 5 C6 4.34 6 3.68 6 3 C3.69 3.33 1.38 3.66 -1 4 C-0.67 2.68 -0.34 1.36 0 0 Z " fill="#E5EED1" transform="translate(70,11)"/>
<path d="M0 0 C1.485 0.99 1.485 0.99 3 2 C3.29296875 4.6015625 3.29296875 4.6015625 3.1875 7.625 C3.16042969 8.62789062 3.13335937 9.63078125 3.10546875 10.6640625 C3.07066406 11.43492188 3.03585938 12.20578125 3 13 C2.01 13 1.02 13 0 13 C0 8.71 0 4.42 0 0 Z " fill="#0F5A4D" transform="translate(80,56)"/>
<path d="M0 0 C2 3 2 3 1.75 5.375 C0.99786647 8.00746736 0.07799802 10.48467129 -1 13 C-1.99 13 -2.98 13 -4 13 C-4 13.66 -4 14.32 -4 15 C-4.66 15 -5.32 15 -6 15 C-5.5484022 12.06461428 -4.71134636 10.57603996 -3 8.0625 C-1.11529257 5.17654174 -0.39625402 3.36815915 0 0 Z " fill="#B0CC9D" transform="translate(34,36)"/>
<path d="M0 0 C0 0.33 0 0.66 0 1 C-1.65 1 -3.3 1 -5 1 C-5 1.66 -5 2.32 -5 3 C-5.7425 3.28875 -6.485 3.5775 -7.25 3.875 C-9.93796893 4.90309802 -9.93796893 4.90309802 -12.0625 6.1875 C-14.47542156 7.19937033 -15.54781638 6.71883137 -18 6 C-16.13308826 4.98498002 -14.25604656 3.98857921 -12.375 3 C-11.33085938 2.443125 -10.28671875 1.88625 -9.2109375 1.3125 C-5.85853405 -0.0578255 -3.58045064 -0.2580505 0 0 Z " fill="#0A251F" transform="translate(81,69)"/>
<path d="M0 0 C0.33 0 0.66 0 1 0 C0.67 2.97 0.34 5.94 0 9 C-3.33333333 9.66666667 -6.66666667 10.33333333 -10 11 C-9.195625 10.38125 -8.39125 9.7625 -7.5625 9.125 C-4.96125481 7.25835959 -4.96125481 7.25835959 -4 5 C-3.34 5 -2.68 5 -2 5 C-1.34 3.35 -0.68 1.7 0 0 Z " fill="#040F0B" transform="translate(80,84)"/>
<path d="M0 0 C0.33 0 0.66 0 1 0 C1.33 2.31 1.66 4.62 2 7 C-1.33333333 8.33333333 -4.66666667 9.66666667 -8 11 C-7.59007812 10.45730469 -7.18015625 9.91460937 -6.7578125 9.35546875 C-6.21898437 8.64003906 -5.68015625 7.92460938 -5.125 7.1875 C-4.59132812 6.47980469 -4.05765625 5.77210937 -3.5078125 5.04296875 C-2.29185219 3.39543703 -1.13583859 1.70375789 0 0 Z " fill="#288669" transform="translate(55,37)"/>
<path d="M0 0 C3 3 3 3 3.07421875 5.48046875 C2.94660156 6.37378906 2.81898437 7.26710938 2.6875 8.1875 C2.56761719 9.08855469 2.44773438 9.98960938 2.32421875 10.91796875 C2.21722656 11.60503906 2.11023437 12.29210938 2 13 C1.01 13.33 0.02 13.66 -1 14 C-0.67 9.38 -0.34 4.76 0 0 Z " fill="#044234" transform="translate(41,28)"/>
<path d="M0 0 C1.45792884 -0.05399736 2.91642712 -0.09279177 4.375 -0.125 C5.18710937 -0.14820312 5.99921875 -0.17140625 6.8359375 -0.1953125 C9 0 9 0 11 2 C10.34 2 9.68 2 9 2 C9.33 2.99 9.66 3.98 10 5 C9.67 5.66 9.34 6.32 9 7 C7.35 7 5.7 7 4 7 C4.66 5.68 5.32 4.36 6 3 C6.66 3 7.32 3 8 3 C8 2.34 8 1.68 8 1 C5.69 1.33 3.38 1.66 1 2 C0.67 1.34 0.34 0.68 0 0 Z " fill="#729969" transform="translate(45,21)"/>
<path d="M0 0 C-0.33 1.98 -0.66 3.96 -1 6 C-2.32 6.33 -3.64 6.66 -5 7 C-5.6875 5.1875 -5.6875 5.1875 -6 3 C-4.04862098 0.26806937 -3.44686768 0 0 0 Z " fill="#03221B" transform="translate(39,77)"/>
<path d="M0 0 C2.4375 0.25 2.4375 0.25 5 1 C5.66 1.99 6.32 2.98 7 4 C5.02 4.99 5.02 4.99 3 6 C1.68 4.35 0.36 2.7 -1 1 C-0.67 0.67 -0.34 0.34 0 0 Z " fill="#D7E9B8" transform="translate(56,45)"/>
<path d="M0 0 C6.27586207 -0.48275862 6.27586207 -0.48275862 9.4375 1.625 C11.43720456 4.66455094 11.54337501 6.42924991 11 10 C10.01 10.66 9.02 11.32 8 12 C8.226875 11.0925 8.45375 10.185 8.6875 9.25 C9.26778551 6.0722658 9.26778551 6.0722658 7.9375 3.6875 C5.39312017 1.47142725 3.30855524 1.2940938 0 1 C0 0.67 0 0.34 0 0 Z " fill="#303A30" transform="translate(23,31)"/>
<path d="M0 0 C2.97 0 5.94 0 9 0 C8.67 0.66 8.34 1.32 8 2 C6.68 2 5.36 2 4 2 C3.34 3.65 2.68 5.3 2 7 C1.01 6.67 0.02 6.34 -1 6 C-0.67 4.02 -0.34 2.04 0 0 Z " fill="#87AC8C" transform="translate(46,31)"/>
<path d="M0 0 C0 1.98 0 3.96 0 6 C-0.99 5.67 -1.98 5.34 -3 5 C-3.33 5.99 -3.66 6.98 -4 8 C-6.0625 8.6875 -6.0625 8.6875 -8 9 C-7.2884375 8.38125 -7.2884375 8.38125 -6.5625 7.75 C-4.85654689 6.11615673 -4.85654689 6.11615673 -4.5 3.9375 C-3.89698638 1.60082222 -2.72939628 0 0 0 Z " fill="#0D6656" transform="translate(79,84)"/>
<path d="M0 0 C0 0.99 0 1.98 0 3 C-0.66 3 -1.32 3 -2 3 C-2.33 4.32 -2.66 5.64 -3 7 C-3.33 5.68 -3.66 4.36 -4 3 C-4.66 3.66 -5.32 4.32 -6 5 C-6.99 5 -7.98 5 -9 5 C-6.3784932 1.13015663 -4.82784953 0 0 0 Z " fill="#384F38" transform="translate(19,31)"/>
<path d="M0 0 C2 3.75 2 3.75 2 6 C2.99 6.33 3.98 6.66 5 7 C-2.42857143 7.28571429 -2.42857143 7.28571429 -6 5 C-4.02 4.34 -2.04 3.68 0 3 C0 2.01 0 1.02 0 0 Z " fill="#60885C" transform="translate(75,14)"/>
<path d="M0 0 C5.28 0 10.56 0 16 0 C14.515 1.485 14.515 1.485 13 3 C9.86328125 2.85546875 9.86328125 2.85546875 6.3125 2.1875 C4.54326172 1.86845703 4.54326172 1.86845703 2.73828125 1.54296875 C1.83464844 1.36378906 0.93101563 1.18460937 0 1 C0 0.67 0 0.34 0 0 Z " fill="#126151" transform="translate(65,79)"/>
<path d="M0 0 C1.32 0 2.64 0 4 0 C3.67 2.31 3.34 4.62 3 7 C2 4 2 4 3 1 C2.34 1 1.68 1 1 1 C1 2.65 1 4.3 1 6 C-0.32 6.33 -1.64 6.66 -3 7 C-3 6.01 -3 5.02 -3 4 C-2.34 4 -1.68 4 -1 4 C-0.67 2.68 -0.34 1.36 0 0 Z " fill="#050C0A" transform="translate(68,23)"/>
<path d="M0 0 C1.65 0.33 3.3 0.66 5 1 C4.34 2.32 3.68 3.64 3 5 C0.03 4.505 0.03 4.505 -3 4 C-2.01 2.68 -1.02 1.36 0 0 Z " fill="#D1E4AC" transform="translate(39,45)"/>
<path d="M0 0 C0.99 0.33 1.98 0.66 3 1 C1.515 7.435 1.515 7.435 0 14 C-0.33 14 -0.66 14 -1 14 C-0.67 9.38 -0.34 4.76 0 0 Z " fill="#030908" transform="translate(88,26)"/>
<path d="M0 0 C0.99 0 1.98 0 3 0 C3.25 2.75 3.25 2.75 3 6 C1 8.375 1 8.375 -1 10 C-0.67 6.7 -0.34 3.4 0 0 Z " fill="#081612" transform="translate(43,30)"/>
<path d="M0 0 C0.99 0.33 1.98 0.66 3 1 C3.33 2.65 3.66 4.3 4 6 C2.68 6.33 1.36 6.66 0 7 C-0.66 6.01 -1.32 5.02 -2 4 C-1.01 3.67 -0.02 3.34 1 3 C0.67 2.01 0.34 1.02 0 0 Z " fill="#CCE2AC" transform="translate(64,41)"/>
<path d="M0 0 C0.33 0.66 0.66 1.32 1 2 C1.66 2 2.32 2 3 2 C3 1.34 3 0.68 3 0 C3.66 0.33 4.32 0.66 5 1 C3.515 3.475 3.515 3.475 2 6 C0.68 5.34 -0.64 4.68 -2 4 C-2 3.34 -2 2.68 -2 2 C-1.34 2 -0.68 2 0 2 C0 1.34 0 0.68 0 0 Z " fill="#D6E6CC" transform="translate(54,26)"/>
<path d="M0 0 C0.33 0.99 0.66 1.98 1 3 C-0.4375 5.1875 -0.4375 5.1875 -2 7 C-3.65 6.67 -5.3 6.34 -7 6 C-7 5.34 -7 4.68 -7 4 C-5.02 3.67 -3.04 3.34 -1 3 C-0.67 2.01 -0.34 1.02 0 0 Z " fill="#C2D3BE" transform="translate(13,29)"/>
<path d="M0 0 C1.98 0 3.96 0 6 0 C6 0.66 6 1.32 6 2 C5.34 2 4.68 2 4 2 C3.34 3.32 2.68 4.64 2 6 C0 3 0 3 0 0 Z " fill="#205545" transform="translate(47,22)"/>
<path d="M0 0 C0.66 0 1.32 0 2 0 C2 1.32 2 2.64 2 4 C-1.69541586 4.95024979 -4.30458414 4.95024979 -8 4 C-8 3.67 -8 3.34 -8 3 C-6.865625 2.690625 -5.73125 2.38125 -4.5625 2.0625 C-1.21224901 1.37075469 -1.21224901 1.37075469 0 0 Z " fill="#065D4D" transform="translate(71,52)"/>
<path d="M0 0 C1.32 0.66 2.64 1.32 4 2 C3.34 2 2.68 2 2 2 C2 3.65 2 5.3 2 7 C1.01 7 0.02 7 -1 7 C-1.04254356 5.00045254 -1.04080783 2.99958364 -1 1 C-0.67 0.67 -0.34 0.34 0 0 Z " fill="#E4F0D0" transform="translate(50,32)"/>
<path d="M0 0 C1.32 0 2.64 0 4 0 C4 0.66 4 1.32 4 2 C5.65 1.67 7.3 1.34 9 1 C8.34 2.65 7.68 4.3 7 6 C6.67 5.01 6.34 4.02 6 3 C3.69 2.67 1.38 2.34 -1 2 C-0.67 1.34 -0.34 0.68 0 0 Z " fill="#BAD8A9" transform="translate(45,37)"/>
<path d="M0 0 C2.31 0 4.62 0 7 0 C5 3 5 3 1.875 3.6875 C0.92625 3.790625 -0.0225 3.89375 -1 4 C-0.67 2.68 -0.34 1.36 0 0 Z " fill="#E4F0D3" transform="translate(23,27)"/>
<path d="M0 0 C0.33 1.32 0.66 2.64 1 4 C-1.31 4.66 -3.62 5.32 -6 6 C-6 5.34 -6 4.68 -6 4 C-5.34 4 -4.68 4 -4 4 C-4 3.34 -4 2.68 -4 2 C-2.68 2 -1.36 2 0 2 C0 1.34 0 0.68 0 0 Z " fill="#C2D8B1" transform="translate(84,21)"/>
<path d="M0 0 C1.2065625 0.0309375 1.2065625 0.0309375 2.4375 0.0625 C2.1075 1.3825 1.7775 2.7025 1.4375 4.0625 C-0.2125 4.0625 -1.8625 4.0625 -3.5625 4.0625 C-3.5625 0.08689024 -3.5625 0.08689024 0 0 Z " fill="#0A9979" transform="translate(24.5625,22.9375)"/>
<path d="M0 0 C0.33 0.66 0.66 1.32 1 2 C4.42922747 4.24218719 7.99051387 4.53736698 12 5 C12 5.33 12 5.66 12 6 C4.69565217 6.36521739 4.69565217 6.36521739 1.5 4.6875 C0 3 0 3 0 0 Z " fill="#0A2113" transform="translate(57,90)"/>
<path d="M0 0 C0.33 0.66 0.66 1.32 1 2 C2.32 2 3.64 2 5 2 C5 3.32 5 4.64 5 6 C3.02 5.34 1.04 4.68 -1 4 C-0.67 2.68 -0.34 1.36 0 0 Z " fill="#DEEACA" transform="translate(75,19)"/>
<path d="M0 0 C3.63 0.33 7.26 0.66 11 1 C11 1.33 11 1.66 11 2 C5.06 2.495 5.06 2.495 -1 3 C-0.67 2.01 -0.34 1.02 0 0 Z " fill="#004939" transform="translate(62,79)"/>
<path d="M0 0 C0.33 1.32 0.66 2.64 1 4 C-0.98 4.99 -0.98 4.99 -3 6 C-3.33 4.68 -3.66 3.36 -4 2 C-2.68 1.34 -1.36 0.68 0 0 Z " fill="#0B5849" transform="translate(75,45)"/>
<path d="M0 0 C0.66 1.32 1.32 2.64 2 4 C0.625 5.5 0.625 5.5 -1 7 C-1.66 7 -2.32 7 -3 7 C-2.67 5.35 -2.34 3.7 -2 2 C-1.34 2 -0.68 2 0 2 C0 1.34 0 0.68 0 0 Z " fill="#0A1512" transform="translate(59,36)"/>
<path d="M0 0 C2.4375 0.375 2.4375 0.375 5 1 C5.33 1.66 5.66 2.32 6 3 C5.34 3.66 4.68 4.32 4 5 C2 3.625 2 3.625 0 2 C0 1.34 0 0.68 0 0 Z " fill="#EFF6DC" transform="translate(68,35)"/>
</svg>
