<svg role="img" viewBox="0 0 100 100" xmlns="http://www.w3.org/2000/svg" id="Metasploit--Streamline-Simple-Icons" height="100" width="100"><desc>Metasploit Streamline Icon: https://streamlinehq.com</desc><title>Metasploit</title><path d="M47.30416666666667 0h5.700000000000001q17.458333333333336 0.9083333333333334 33.93333333333334 6.733333333333334 0.9041666666666667 0.32083333333333336 0.9 1.2875 -0.0625 16.80416666666667 -0.008333333333333335 50.425000000000004 0 3.3750000000000004 -0.3875 4.8875c-0.9041666666666667 3.5208333333333335 -3.166666666666667 6.812500000000001 -5.525 9.687500000000002q-1.3250000000000002 1.616666666666667 -4.2666666666666675 4.358333333333333 -12.312500000000002 11.458333333333334 -25.041666666666668 21.225 -0.7625000000000001 0.5833333333333335 -2.1500000000000004 1.3958333333333335h-0.7083333333333335q-2.6125000000000003 -1.75 -3.9375 -2.804166666666667 -16.633333333333333 -13.266666666666667 -22.675 -18.579166666666666 -5.616666666666667 -4.937500000000001 -9.037500000000001 -10.879166666666668c-1.5375 -2.666666666666667 -1.9416666666666669 -5.3625 -1.9375000000000002 -8.745833333333335q0.04166666666666667 -25.200000000000003 0.008333333333333335 -50.90833333333334c0 -0.7625000000000001 0.375 -1.1 1.0875000000000001 -1.3541666666666667Q29.770833333333332 0.9458333333333334 47.300000000000004 0ZM31.14166666666667 32.766666666666666q0 -0.3916666666666667 0.28750000000000003 -0.12916666666666668l11.654166666666669 10.483333333333334a1.5583333333333333 1.55 21.2 0 1 0.5083333333333333 1.1500000000000001l-0.025 18.054166666666667a0.7583333333333334 0.7583333333333334 0 0 0 0.7625000000000001 0.7666666666666667l10.516666666666667 -0.075a0.45833333333333337 0.45833333333333337 89.8 0 0 0.45 -0.45833333333333337q-0.02916666666666667 -9.170833333333334 0.04166666666666667 -18.587500000000002 0.008333333333333335 -0.7208333333333333 0.6083333333333334 -1.2083333333333333 5.820833333333334 -4.770833333333334 12.275000000000002 -9.970833333333333 0.2833333333333334 -0.22916666666666669 0.2833333333333334 0.13333333333333336v45.337500000000006q0 0.38333333333333336 0.2625 0.1 3.3083333333333336 -3.604166666666667 6.783333333333333 -7.658333333333334 2.9583333333333335 -3.4583333333333335 4.1000000000000005 -7.791666666666668 1.0833333333333335 -4.120833333333334 1.0916666666666668 -8.320833333333335 0.02916666666666667 -19.808333333333334 0.0375 -40.7a0.5666666666666668 0.5666666666666668 0 0 0 -0.5708333333333334 -0.5666666666666668q-4.791666666666667 0.01666666666666667 -10.1 0c-1.1958333333333333 -0.008333333333333335 -1.8375000000000001 -0.09166666666666667 -2.5791666666666666 0.6208333333333333Q59.00000000000001 22.15416666666667 49.925 30.833333333333336a0.19166666666666668 0.19166666666666668 0 0 1 -0.25833333333333336 0Q40.75833333333333 22.65416666666667 32.37083333333334 14.6875c-0.9750000000000001 -0.925 -2.1458333333333335 -1.5875000000000001 -3.5125 -1.5541666666666667q-4.541666666666667 0.10833333333333334 -9.708333333333334 0.020833333333333336 -0.7666666666666667 -0.01666666666666667 -0.7666666666666667 0.75 -0.0125 18.916666666666668 0.020833333333333336 37.63333333333333 0.008333333333333335 2.233333333333334 0.15 4.279166666666667c0.3166666666666667 4.554166666666667 0.8333333333333335 8.858333333333334 3.3458333333333337 12.5875 2.3916666666666666 3.5500000000000003 5.5375000000000005 6.9 8.858333333333334 10.020833333333334q0.09583333333333334 0.09166666666666667 0.225 0.10833333333333334 0.16666666666666669 0.025 0.16666666666666669 -0.1416666666666667z" fill="#5b5bff" stroke-width="4.1667"></path></svg>